<?xml version="1.0" encoding="UTF-8" standalone="no"?>
<svg width="63px" height="64px" viewBox="0 0 63 64" version="1.1" xmlns="http://www.w3.org/2000/svg" xmlns:xlink="http://www.w3.org/1999/xlink">
    <!-- Generator: Sketch 47 (45396) - http://www.bohemiancoding.com/sketch -->
    <title>Page 1</title>
    <desc>Created with Sketch.</desc>
    <defs>
        <polygon id="path-1" points="62.8774521 0.116756757 0 0.116756757 0 63.1351351 62.8774521 63.1351351 62.8774521 0.116895237 4.02041984e-05 0.116895237 4.02041984e-05 63.1350798 62.8777655 63.1350798 62.8777655 0.116895237"></polygon>
    </defs>
    <g id="Finale" stroke="none" stroke-width="1" fill="none" fill-rule="evenodd">
        <g id="Extra-large:-Desktops---12-col-Copy-5" transform="translate(-162.000000, -2902.000000)">
            <g id="Page-1" transform="translate(162.000000, 2902.000000)">
                <g id="Group-3" transform="translate(0.000000, 0.748281)">
                    <mask id="mask-2" fill="white">
                        <use xlink:href="#path-1"></use>
                    </mask>
                    <g id="Clip-2"></g>
                </g>
                <path d="M41.2577507,18.5730595 C41.2594767,20.7914378 42.9898192,22.5462486 45.1758329,22.5462486 C47.3385452,22.5462486 49.1223945,20.7706811 49.1154904,18.6232216 C49.1094493,16.4290595 47.3463123,14.6656 45.1611616,14.6707892 C43.0113945,14.6759784 41.2568877,16.4299243 41.2577507,18.5730595 M37.3275863,18.5410595 C37.2904767,14.5107892 40.5751068,10.8506811 44.9100247,10.7460324 C49.4425726,10.6370595 52.9912849,14.1311135 53.0422027,18.6344649 C53.0905315,22.8645189 49.5435452,26.4303568 45.2327918,26.4839784 C40.8737096,26.5393297 37.369874,23.0184649 37.3275863,18.5410595 M4.60797534,32.3762162 C4.6744274,32.3814054 4.74001644,32.3909189 4.80474247,32.3909189 C8.52778356,32.3917838 12.2516877,32.3874595 15.9747288,32.4004324 C16.2672904,32.4021622 16.3397836,32.2421622 16.4373041,32.044973 C18.2617151,28.352 20.0878521,24.6598919 21.9114,20.9669189 C21.9683589,20.851027 22.0753726,20.7455135 22.0322219,20.5777297 L21.6240164,20.5777297 C18.3790849,20.5777297 15.1324274,20.5881081 11.8866329,20.5716757 C10.8907151,20.5673514 10.2158384,20.9764324 9.77224932,21.8741622 C8.11094795,25.2384865 6.42720822,28.5907027 4.75468767,31.948973 C4.69168767,32.0778378 4.57863288,32.1945946 4.60797534,32.3762162 L4.60797534,32.3762162 Z M31.4321671,59.3305946 C31.6185781,59.2441081 31.741989,59.1922162 31.8610849,59.1325405 C35.2000849,57.4598919 38.5339068,55.7794595 41.8780849,54.1206486 C42.8015096,53.6631351 43.2235233,52.9565405 43.2192082,51.9316757 C43.2054,48.6918919 43.2140301,45.4521081 43.2140301,42.2131892 L43.2140301,41.7712432 C43.077674,41.8248649 42.9767014,41.8568649 42.8834959,41.9035676 C39.171674,43.7422703 35.4624411,45.5835676 31.7480301,47.4153514 C31.5046603,47.5364324 31.4244,47.6748108 31.425263,47.9455135 C31.4347562,51.212973 31.4321671,54.4812973 31.4321671,57.7478919 L31.4321671,59.3305946 Z M58.9364137,12.7481081 C58.9519479,10.2322162 58.8570164,7.92908108 58.4695233,5.64410811 C58.4289616,5.40540541 58.3392082,5.34227027 58.1148247,5.30335135 C56.311126,4.99372973 54.4918932,4.86313514 52.6648932,4.82940541 C50.1552493,4.7852973 47.6456055,4.78962162 45.1670301,5.25491892 C42.0351534,5.84302703 39.1371534,7.02010811 36.4997836,8.82162162 C34.1592904,10.4198919 32.1553726,12.3831351 30.3775644,14.5807568 C28.9078521,16.396973 27.5624137,18.291027 26.5397425,20.4151351 C24.7041123,24.2248649 22.795989,27.9991351 20.9215233,31.7898378 C19.5079068,34.6516757 18.1003315,37.516973 16.683263,40.3762162 C16.5650301,40.6140541 16.5667562,40.7654054 16.7747425,40.9703784 C18.7113452,42.8756757 20.6324137,44.7982703 22.5612493,46.7122162 C23.1411945,47.2882162 23.1446466,47.283027 23.8592219,46.9292973 C29.9995644,43.8858378 36.1407699,40.8441081 42.2802493,37.7997838 C43.2088521,37.3396757 44.1762904,36.9401081 45.0462082,36.3874595 C47.9718247,34.5305946 50.6747836,32.3926486 52.9790301,29.7807568 C55.2573863,27.1974054 56.9575233,24.2845405 57.9335918,20.9669189 C58.7413726,18.2175135 59.0080438,15.3997838 58.9364137,12.7481081 L58.9364137,12.7481081 Z M27.5037288,49.5385946 C26.6571123,49.9528649 25.8640027,50.3385946 25.0726192,50.7277838 C23.2516603,51.6229189 21.6542219,51.3608649 20.2250712,49.9303784 C18.0243863,47.7275676 15.8245644,45.5238919 13.6238795,43.3202162 C12.6219205,42.3178378 12.3207288,40.5612973 12.9481397,39.1602162 C13.3649753,38.2278919 13.8353178,37.3197838 14.3065233,36.3511351 C14.1313315,36.3433514 13.9915233,36.3312432 13.8508521,36.3312432 C10.2356877,36.3303784 6.62052329,36.3364324 3.00449589,36.3277838 C1.27329041,36.3243243 -0.0592027397,34.9621622 0.00207123288,33.2791351 C0.0184684932,32.8233514 0.147920548,32.3935135 0.350728767,31.9852973 C2.39261918,27.8962162 4.39222192,23.7855135 6.49279726,19.7267027 C7.56983836,17.644973 9.42272877,16.6581622 11.7528658,16.6451892 C15.6001808,16.6244324 19.4483589,16.6227027 23.294811,16.6564324 C23.9049616,16.6616216 24.2147836,16.4644324 24.5427288,15.9602162 C27.1956329,11.8875676 30.3231945,8.24994595 34.383674,5.50572973 C37.9254822,3.11264865 41.8271671,1.66313514 46.0662904,1.15113514 C49.3966603,0.748972973 52.7365233,0.816432432 56.0712082,1.07416216 C57.5227973,1.18659459 58.9648932,1.42097297 60.3905918,1.72713514 C61.3122904,1.92518919 61.855126,2.50637838 62.0518932,3.43178378 C62.5671123,5.87243243 62.7949479,8.34335135 62.8501808,10.8324324 C62.8950575,12.8683243 62.9097288,14.9068108 62.6974274,16.9349189 C62.1899753,21.772973 60.5821808,26.1958919 57.7161123,30.1431351 C55.2867288,33.4884324 52.2515096,36.1894054 48.8831671,38.5392432 C48.4128247,38.8661622 47.9476603,39.2025946 47.4600575,39.5018378 C47.2054685,39.6583784 47.1260712,39.8365405 47.1277973,40.1297297 C47.1372904,44.0406486 47.1329753,47.9507027 47.1338384,51.8607568 C47.1347014,54.5184865 45.9825781,56.4514595 43.5868521,57.644973 C39.6704959,59.5952432 35.7679479,61.5714595 31.8567699,63.5303784 C29.977989,64.4722162 27.9240164,63.4516757 27.5425644,61.3907027 C27.5054548,61.1909189 27.5054548,60.9824865 27.5054548,60.7783784 C27.5037288,57.196973 27.5037288,53.6147027 27.5037288,50.0324324 L27.5037288,49.5385946 Z" id="Fill-4" fill="#FEFEFE"></path>
            </g>
        </g>
    </g>
</svg>