<?xml version="1.0" encoding="UTF-8" standalone="no"?>
<svg width="57px" height="57px" viewBox="0 0 57 57" version="1.1" xmlns="http://www.w3.org/2000/svg" xmlns:xlink="http://www.w3.org/1999/xlink">
    <!-- Generator: Sketch 47 (45396) - http://www.bohemiancoding.com/sketch -->
    <title>Page 1</title>
    <desc>Created with Sketch.</desc>
    <defs></defs>
    <g id="Finale" stroke="none" stroke-width="1" fill="none" fill-rule="evenodd">
        <g id="Extra-large:-Desktops---12-col-Copy-5" transform="translate(-468.000000, -1259.000000)" fill="#FFFFFF">
            <path d="M498,1313 L516.6,1313 L516.6,1289 L498,1289 L498,1313 Z M476.4,1313 L495,1313 L495,1289 L476.4,1289 L476.4,1313 Z M498,1286 L522,1286 L522,1275.5 L498,1275.5 L498,1286 Z M471,1286 L495,1286 L495,1275.5 L471,1275.5 L471,1286 Z M508.65,1272.5 L498.453,1272.5 C499.569,1268.896 502.509,1262 508.65,1262 C511.545,1262 513.9,1264.355 513.9,1267.25 C513.9,1270.145 511.545,1272.5 508.65,1272.5 L508.65,1272.5 Z M484.35,1262 C490.477,1262 493.424,1268.896 494.545,1272.5 L484.35,1272.5 C481.455,1272.5 479.1,1270.145 479.1,1267.25 C479.1,1264.355 481.455,1262 484.35,1262 L484.35,1262 Z M523.5,1272.5 L514.999,1272.5 C516.218,1271.028 516.9,1269.17 516.9,1267.25 C516.9,1262.701 513.199,1259 508.65,1259 C501.88,1259 498.244,1264.823 496.5,1269.042 C494.756,1264.823 491.12,1259 484.35,1259 C479.801,1259 476.1,1262.701 476.1,1267.25 C476.1,1269.17 476.782,1271.028 478.002,1272.5 L469.5,1272.5 C468.673,1272.5 468,1273.173 468,1274 L468,1287.5 C468,1288.327 468.673,1289 469.5,1289 L473.4,1289 L473.4,1314.5 C473.4,1315.327 474.073,1316 474.9,1316 L518.1,1316 C518.927,1316 519.6,1315.327 519.6,1314.5 L519.6,1289 L523.5,1289 C524.327,1289 525,1288.327 525,1287.5 L525,1274 C525,1273.173 524.327,1272.5 523.5,1272.5 L523.5,1272.5 Z" id="Page-1"></path>
        </g>
    </g>
</svg>