<?xml version="1.0" encoding="UTF-8" standalone="no"?>
<svg width="10px" height="18px" viewBox="0 0 10 18" version="1.1" xmlns="http://www.w3.org/2000/svg" xmlns:xlink="http://www.w3.org/1999/xlink">
    <!-- Generator: Sketch 47 (45396) - http://www.bohemiancoding.com/sketch -->
    <title>Page 1 Copy 2</title>
    <desc>Created with Sketch.</desc>
    <defs>
        <polygon id="path-1" points="0 0 18 0 18 10 0 10"></polygon>
    </defs>
    <g id="Popuestas" stroke="none" stroke-width="1" fill="none" fill-rule="evenodd">
        <g id="Extra-large:-Desktops---12-col-Copy-7" transform="translate(-208.000000, -325.000000)">
            <g id="Page-1-Copy-2" transform="translate(213.000000, 334.000000) rotate(-90.000000) translate(-213.000000, -334.000000) translate(204.000000, 329.000000)">
                <mask id="mask-2" fill="white">
                    <use xlink:href="#path-1"></use>
                </mask>
                <g id="Clip-2"></g>
                <path d="M0.742064774,0 C0.859729303,0.0594467458 0.964552936,0.105236807 1.06099068,0.164415775 C1.1134025,0.196549151 1.1524493,0.251979224 1.19699934,0.297501507 C3.75050306,2.90646387 6.30400677,5.51596179 8.85724843,8.12492415 C9.00531181,8.27595102 9.00557387,8.27595102 9.15599579,8.12224637 C11.725223,5.49694954 14.2944503,2.87218827 16.8626293,0.246088105 C16.98108,0.125052389 17.1037237,0.0305267073 17.2837583,0.0385600514 C17.5722853,0.0503422893 18.0329852,0.535556269 17.9981313,0.826898879 C17.983456,0.947934596 17.912438,1.08102033 17.8283171,1.17099378 C17.4527864,1.57319654 17.0633666,1.96174261 16.6786639,2.35510869 C14.2493761,4.837412 11.8200884,7.32025086 9.39053867,9.80255417 C9.18901523,10.0084756 8.99561563,10.0529267 8.78518218,9.93778212 C8.73093595,9.90805875 8.68140678,9.86467869 8.63764292,9.81969197 C5.81683894,6.93786368 2.99655907,4.05576762 0.17680333,1.17233267 C-0.0574774915,0.932671242 -0.0580016097,0.674800899 0.169727734,0.432997243 C0.2538487,0.343559346 0.332728485,0.246088105 0.428904168,0.172449119 C0.518266316,0.103897916 0.626758777,0.0615889709 0.742064774,0" id="Fill-1" fill="#C4C4C4" mask="url(#mask-2)"></path>
            </g>
        </g>
    </g>
</svg>