<?xml version="1.0" encoding="UTF-8" standalone="no"?>
<svg width="46px" height="46px" viewBox="0 0 46 46" version="1.1" xmlns="http://www.w3.org/2000/svg" xmlns:xlink="http://www.w3.org/1999/xlink">
    <!-- Generator: Sketch 47 (45396) - http://www.bohemiancoding.com/sketch -->
    <title>Group 11</title>
    <desc>Created with Sketch.</desc>
    <defs></defs>
    <g id="Popuestas" stroke="none" stroke-width="1" fill="none" fill-rule="evenodd">
        <g id="Extra-large:-Desktops---12-col-Copy-5" transform="translate(-205.000000, -2079.000000)">
            <g id="Group-11" transform="translate(205.000000, 2079.000000)">
                <rect id="Rectangle-8-Copy-22" fill="#459DE1" x="0" y="0" width="46" height="46" rx="5"></rect>
                <g id="Page-1" transform="translate(11.000000, 8.000000)" fill="#FEFEFE">
                    <g id="Group-3" transform="translate(0.000000, 0.430449)">
                        <path d="M12.5061161,10.7172846 C9.07441964,10.7172846 5.64227679,10.7213 2.21058036,10.7105923 C1.88825893,10.7097 1.7753125,10.7690385 1.77620536,11.1255154 C1.79004464,15.9667308 1.78513393,20.8079462 1.78558036,25.6496077 C1.78558036,26.4111923 2.13647321,26.7676692 2.88736607,26.7676692 C9.29316964,26.7681154 15.6985268,26.7681154 22.1038839,26.7676692 C22.8315625,26.7676692 23.1994196,26.4018231 23.1994196,25.6768231 C23.1998661,20.8231154 23.1958482,15.9694077 23.2074554,11.1157 C23.2083482,10.7895615 23.1311161,10.7079154 22.8020982,10.7088077 C19.3699554,10.7226385 15.9382589,10.7172846 12.5061161,10.7172846 M12.5038839,8.93400769 C15.9480804,8.93400769 19.3922768,8.93043846 22.8364732,8.94025385 C23.1239732,8.94114615 23.2087946,8.87243846 23.2065625,8.57574615 C23.1922768,6.65639231 23.2012054,4.73748462 23.1985268,2.81813077 C23.1976339,2.18994615 22.8079018,1.80134615 22.1797768,1.80134615 C15.7248661,1.80000769 9.26995536,1.80000769 2.81504464,1.8009 C2.16191964,1.80134615 1.78647321,2.18236154 1.78602679,2.84088462 C1.7846875,4.74774615 1.79361607,6.65460769 1.77754464,8.56102308 C1.77486607,8.88091538 1.87174107,8.94159231 2.17129464,8.9407 C5.61549107,8.92999231 9.0596875,8.93400769 12.5038839,8.93400769 M0.000758928571,14.2597462 C0.000758928571,10.4460231 0.0003125,6.63185385 0.00120535714,2.81813077 C0.00120535714,1.22580769 1.19495536,0.0194076923 2.79049107,0.0185153846 C9.25834821,0.0149461538 15.7262054,0.0149461538 22.1940625,0.0185153846 C23.7681696,0.0189615385 24.9802232,1.21866923 24.9815625,2.79136154 C24.9869196,10.4687769 24.9869196,18.1461923 24.9811161,25.8231615 C24.9802232,27.3209 23.7605804,28.5460385 22.2601339,28.5478231 C15.7427232,28.5554077 9.2253125,28.5563 2.70790179,28.5473769 C1.18825893,28.5451462 0.00388392857,27.3164385 0.00254464286,25.7758692 C-0.00191964286,21.9371615 0.000758928571,18.0984538 0.000758928571,14.2597462" id="Fill-1"></path>
                    </g>
                    <path d="M12.5298661,20.0649215 C12.0227232,20.0649215 11.5155804,20.0725062 11.0084375,20.0613523 C10.8012946,20.0564446 10.6981696,20.0863369 10.7021875,20.3366292 C10.7164732,21.3502908 10.7120089,22.3639523 10.7048661,23.3776138 C10.7035268,23.5649985 10.7508482,23.6372754 10.9517411,23.6354908 C11.9785268,23.6265677 13.0057589,23.6265677 14.0325446,23.6354908 C14.2329911,23.6372754 14.2816518,23.5667831 14.2803125,23.3785062 C14.2731696,22.3648446 14.2687054,21.3507369 14.2829911,20.3370754 C14.2865625,20.0881215 14.1852232,20.0559985 13.9771875,20.0613523 C13.4950446,20.0729523 13.0124554,20.0649215 12.5298661,20.0649215 M7.13879464,20.0649215 C6.64415179,20.0649215 6.1490625,20.0725062 5.65441964,20.0613523 C5.44683036,20.0564446 5.34504464,20.0876754 5.34861607,20.3370754 C5.36290179,21.3502908 5.3584375,22.3643985 5.35084821,23.37806 C5.34995536,23.5658908 5.39772321,23.6372754 5.5990625,23.6354908 C6.62540179,23.6265677 7.65263393,23.6265677 8.67941964,23.6354908 C8.8803125,23.6372754 8.92808036,23.5658908 8.92674107,23.37806 C8.91959821,22.3643985 8.91513393,21.3502908 8.92941964,20.3366292 C8.93299107,20.0872292 8.8303125,20.0564446 8.62361607,20.0613523 C8.12897321,20.0725062 7.63388393,20.0649215 7.13879464,20.0649215 M12.4553125,18.2811985 C12.9629018,18.2811985 13.4700446,18.2736138 13.9771875,18.2852138 C14.1847768,18.2896754 14.2865625,18.2584446 14.2829911,18.0090446 C14.2687054,16.9953831 14.2731696,15.9817215 14.2803125,14.9676138 C14.2816518,14.7797831 14.2329911,14.7088446 14.0325446,14.7106292 C13.0057589,14.7195523 11.9789732,14.7195523 10.9521875,14.7106292 C10.7508482,14.7088446 10.7035268,14.7806754 10.7048661,14.96806 C10.7120089,15.9821677 10.7164732,16.9958292 10.7021875,18.0094908 C10.6986161,18.2593369 10.8012946,18.2896754 11.0079911,18.2852138 C11.4901339,18.2736138 11.9731696,18.2811985 12.4553125,18.2811985 M8.92316964,16.5081831 C8.92316964,15.98886 8.91825893,15.4695369 8.92629464,14.95066 C8.92897321,14.7802292 8.88254464,14.7101831 8.69861607,14.7115215 C7.65933036,14.71866 6.62049107,14.7182138 5.58120536,14.7115215 C5.39995536,14.7106292 5.35040179,14.7762138 5.35174107,14.9484292 C5.35754464,15.9745831 5.3584375,17.0007369 5.35129464,18.0268908 C5.34995536,18.2133831 5.39549107,18.2869985 5.59772321,18.2852138 C6.62450893,18.2762908 7.65129464,18.2762908 8.67808036,18.2852138 C8.87763393,18.2869985 8.93075893,18.2182908 8.92674107,18.0291215 C8.91647321,17.5222908 8.92316964,17.01546 8.92316964,16.5081831 M19.6303125,19.1998292 C19.6303125,17.8140754 19.6240625,16.4283215 19.6361161,15.0425677 C19.6383482,14.7895985 19.5798661,14.7034908 19.3115625,14.7083985 C18.3338839,14.72446 17.3557589,14.7249062 16.3780804,14.7079523 C16.1070982,14.7034908 16.0553125,14.7949523 16.0562054,15.0447985 C16.0646875,17.8038138 16.0642411,20.5632754 16.0566518,23.3222908 C16.0562054,23.5574138 16.1106696,23.6408446 16.3615625,23.6372754 C17.3517411,23.6234446 18.3423661,23.6229985 19.3325446,23.6377215 C19.5874554,23.6412908 19.6365625,23.5516138 19.6352232,23.32006 C19.6258482,21.9467985 19.6303125,20.5730908 19.6303125,19.1998292 M12.4731696,25.4151985 C9.8959375,25.4151985 7.31870536,25.4151985 4.74147321,25.4147523 C3.87272321,25.4147523 3.57004464,25.1176138 3.57004464,24.2636754 C3.56959821,20.8581831 3.56959821,17.4531369 3.57004464,14.0476446 C3.57004464,13.2459062 3.88924107,12.9313677 4.70174107,12.9313677 C9.89370536,12.9309215 15.0856696,12.9309215 20.2771875,12.9313677 C21.1008482,12.9313677 21.4146875,13.2494754 21.4146875,14.0833369 C21.4151339,17.4763369 21.4151339,20.8693369 21.4146875,24.2627831 C21.4146875,25.1118138 21.1062054,25.4147523 20.2423661,25.4147523 C17.6526339,25.4151985 15.0629018,25.4151985 12.4731696,25.4151985" id="Fill-4"></path>
                </g>
            </g>
        </g>
    </g>
</svg>