<?xml version="1.0" encoding="UTF-8" standalone="no"?>
<svg width="42px" height="46px" viewBox="0 0 42 46" version="1.1" xmlns="http://www.w3.org/2000/svg" xmlns:xlink="http://www.w3.org/1999/xlink">
    <!-- Generator: Sketch 47 (45396) - http://www.bohemiancoding.com/sketch -->
    <title>Page 1</title>
    <desc>Created with Sketch.</desc>
    <defs>
        <polygon id="path-1" points="20.8033875 0 41.60625 0 41.60625 46 20.8033875 46 0.000525 46 0.000525 0"></polygon>
    </defs>
    <g id="Finale" stroke="none" stroke-width="1" fill="none" fill-rule="evenodd" opacity="0.864272388">
        <g id="Extra-large:-Desktops---12-col-Copy-7" transform="translate(-196.000000, -501.000000)">
            <g id="Page-1" transform="translate(196.000000, 501.000000)">
                <mask id="mask-2" fill="white">
                    <use xlink:href="#path-1"></use>
                </mask>
                <g id="Clip-2"></g>
                <path d="M35.963025,43.3714286 L5.6429625,43.3714286 C3.9787125,43.3714286 2.625525,42.0164 2.625525,40.3485714 L2.625525,19.9771429 L38.981775,19.9771429 L38.981775,40.3485714 C38.981775,42.0164 37.6285875,43.3714286 35.963025,43.3714286 M5.6429625,6.96571429 L10.82865,6.96571429 L10.82865,9.98857143 C10.82865,10.7140571 11.4153375,11.3028571 12.14115,11.3028571 C12.86565,11.3028571 13.45365,10.7140571 13.45365,9.98857143 L13.45365,6.96571429 L28.15365,6.96571429 L28.15365,9.98857143 C28.15365,10.7140571 28.7403375,11.3028571 29.46615,11.3028571 C30.1919625,11.3028571 30.77865,10.7140571 30.77865,9.98857143 L30.77865,6.96571429 L35.963025,6.96571429 C37.6285875,6.96571429 38.981775,8.32205714 38.981775,9.98857143 L38.981775,17.3485714 L2.625525,17.3485714 L2.625525,9.98857143 C2.625525,8.32205714 3.9787125,6.96571429 5.6429625,6.96571429 M35.963025,4.33714286 L30.77865,4.33714286 L30.77865,1.31428571 C30.77865,0.5888 30.1919625,0 29.46615,0 C28.7403375,0 28.15365,0.5888 28.15365,1.31428571 L28.15365,4.33714286 L13.45365,4.33714286 L13.45365,1.31428571 C13.45365,0.5888 12.86565,0 12.14115,0 C11.4153375,0 10.82865,0.5888 10.82865,1.31428571 L10.82865,4.33714286 L5.6429625,4.33714286 C2.531025,4.33714286 0.000525,6.8724 0.000525,9.98857143 L0.000525,40.3485714 C0.000525,43.4647429 2.531025,46 5.6429625,46 L35.963025,46 C39.0749625,46 41.606775,43.4647429 41.606775,40.3485714 L41.606775,9.98857143 C41.606775,6.8724 39.0749625,4.33714286 35.963025,4.33714286" id="Fill-1" fill="#003785" mask="url(#mask-2)"></path>
            </g>
        </g>
    </g>
</svg>