<?xml version="1.0" encoding="UTF-8" standalone="no"?>
<svg width="20px" height="22px" viewBox="0 0 20 22" version="1.1" xmlns="http://www.w3.org/2000/svg" xmlns:xlink="http://www.w3.org/1999/xlink">
    <!-- Generator: Sketch 47 (45396) - http://www.bohemiancoding.com/sketch -->
    <title>Page 1</title>
    <desc>Created with Sketch.</desc>
    <defs>
        <polygon id="path-1" points="10 0 20 0 20 22 10 22 0 22 0 0"></polygon>
    </defs>
    <g id="Popuestas" stroke="none" stroke-width="1" fill="none" fill-rule="evenodd">
        <g id="Mobile-Copy-2" transform="translate(-152.000000, -10.000000)">
            <g id="Page-1" transform="translate(152.000000, 10.000000)">
                <mask id="mask-2" fill="white">
                    <use xlink:href="#path-1"></use>
                </mask>
                <g id="Clip-2"></g>
                <path d="M17.2870662,20.7428571 L2.71230284,20.7428571 C1.91230284,20.7428571 1.26182965,20.0948 1.26182965,19.2971429 L1.26182965,9.55428571 L18.7381703,9.55428571 L18.7381703,19.2971429 C18.7381703,20.0948 18.0876972,20.7428571 17.2870662,20.7428571 M2.71230284,3.33142857 L5.20504732,3.33142857 L5.20504732,4.77714286 C5.20504732,5.12411429 5.48706625,5.40571429 5.83596215,5.40571429 C6.18422713,5.40571429 6.46687697,5.12411429 6.46687697,4.77714286 L6.46687697,3.33142857 L13.533123,3.33142857 L13.533123,4.77714286 C13.533123,5.12411429 13.815142,5.40571429 14.1640379,5.40571429 C14.5129338,5.40571429 14.7949527,5.12411429 14.7949527,4.77714286 L14.7949527,3.33142857 L17.2870662,3.33142857 C18.0876972,3.33142857 18.7381703,3.98011429 18.7381703,4.77714286 L18.7381703,8.29714286 L1.26182965,8.29714286 L1.26182965,4.77714286 C1.26182965,3.98011429 1.91230284,3.33142857 2.71230284,3.33142857 M17.2870662,2.07428571 L14.7949527,2.07428571 L14.7949527,0.628571429 C14.7949527,0.2816 14.5129338,0 14.1640379,0 C13.815142,0 13.533123,0.2816 13.533123,0.628571429 L13.533123,2.07428571 L6.46687697,2.07428571 L6.46687697,0.628571429 C6.46687697,0.2816 6.18422713,0 5.83596215,0 C5.48706625,0 5.20504732,0.2816 5.20504732,0.628571429 L5.20504732,2.07428571 L2.71230284,2.07428571 C1.21640379,2.07428571 0,3.2868 0,4.77714286 L0,19.2971429 C0,20.7874857 1.21640379,22 2.71230284,22 L17.2870662,22 C18.7829653,22 20,20.7874857 20,19.2971429 L20,4.77714286 C20,3.2868 18.7829653,2.07428571 17.2870662,2.07428571" id="Fill-1" fill="#FFFFFF" mask="url(#mask-2)"></path>
            </g>
        </g>
    </g>
</svg>