<?xml version="1.0" encoding="UTF-8" standalone="no"?>
<svg width="74px" height="56px" viewBox="0 0 74 56" version="1.1" xmlns="http://www.w3.org/2000/svg" xmlns:xlink="http://www.w3.org/1999/xlink">
    <!-- Generator: Sketch 47 (45396) - http://www.bohemiancoding.com/sketch -->
    <title>Group 4</title>
    <desc>Created with Sketch.</desc>
    <defs></defs>
    <g id="Finale" stroke="none" stroke-width="1" fill="none" fill-rule="evenodd">
        <g id="Extra-large:-Desktops---12-col-Copy-5" transform="translate(-559.000000, -622.000000)" fill="#949EAD">
            <g id="Group-5" transform="translate(559.000000, 620.000000)">
                <g id="Group-4" transform="translate(0.000000, 2.000000)">
                    <g id="Group-3" transform="translate(0.000000, 0.603540)">
                        <path d="M8.1621119,28.8232643 C8.1621119,22.4892167 8.15946905,16.155169 8.17004048,9.82112143 C8.17092143,9.43614524 8.09515952,9.31457381 7.7330881,9.32426429 C6.71382619,9.35333571 5.69368333,9.33395476 4.67354048,9.33395476 C4.08154048,9.33395476 4.08154048,9.33395476 4.08154048,9.97000238 L4.08154048,47.5038595 C4.08154048,47.660669 4.07273095,47.8192405 4.08506429,47.97605 C4.14673095,48.7856452 4.49118333,49.4155262 5.13339762,49.7996214 C6.54644524,50.6418119 8.15946905,49.5635262 8.16123095,47.7795976 C8.16475476,41.4605262 8.1621119,35.1414548 8.1621119,28.8232643 M11.8876595,50.0903357 L12.3950881,50.0903357 C31.2254452,50.0903357 50.0540405,50.0885738 68.8843976,50.1017881 C69.2993262,50.1017881 69.3891833,49.9855024 69.3891833,49.5362167 C69.377731,34.8199071 69.377731,20.1053595 69.3883024,5.38993095 C69.3883024,4.93447857 69.3143024,4.79264524 68.8685405,4.79264524 C50.1659214,4.80850238 31.4641833,4.80762143 12.7615643,4.79440714 C12.3307786,4.79440714 12.2329929,4.9098119 12.2329929,5.38288333 C12.2462071,18.9821452 12.2444452,32.5805262 12.2435643,46.1797881 C12.2435643,47.4800738 12.3210881,48.7882881 11.8876595,50.0903357 M38.0995167,54.618431 C27.4875643,54.618431 16.8764929,54.6201929 6.26454048,54.61755 C3.55120714,54.61755 1.28187381,52.8838357 0.365683333,50.1167643 C0.110207143,49.344169 8.80952381e-05,48.5389786 8.80952381e-05,47.7152881 C8.80952381e-05,34.5882167 -0.00167380952,21.4611452 0.00185,8.33407381 C0.00185,6.26295476 1.31623095,4.8173119 3.19442143,4.80762143 C4.56782619,4.80057381 5.9421119,4.80585952 7.31727857,4.80585952 C8.16123095,4.80585952 8.16651667,4.80585952 8.16123095,3.88614524 C8.15594524,3.16288333 8.28280238,2.48102619 8.6431119,1.86964524 C9.23599286,0.865359524 10.0781833,0.339430952 11.15735,0.281288095 C11.2428024,0.276002381 11.3282548,0.277764286 11.4128262,0.277764286 C31.006969,0.277764286 50.6019929,0.277764286 70.1961357,0.277764286 C71.7219452,0.278645238 72.8839214,1.17193095 73.3111833,2.66338333 C73.4142548,3.02457381 73.4618262,3.39545476 73.4618262,3.77602619 C73.4609452,19.56005 73.4627071,35.3431929 73.4591833,51.1272167 C73.4583024,53.1833595 72.1060405,54.61755 70.19085,54.618431 C59.4934452,54.6193119 48.7969214,54.618431 38.0995167,54.618431" id="Fill-1"></path>
                    </g>
                    <path d="M20.4060286,23.4747381 C20.4060286,26.3510476 20.4139571,29.2273571 20.397219,32.1036667 C20.3954571,32.5027381 20.4967667,32.5899524 20.8438619,32.5890714 C26.0000762,32.5758571 31.1554095,32.577619 36.3116238,32.5873095 C36.6322905,32.5881905 36.7397667,32.5150714 36.7397667,32.1300952 C36.7265524,26.3933333 36.7265524,20.6565714 36.7388857,14.9198095 C36.7397667,14.540119 36.6393381,14.4581905 36.3142667,14.4590714 C31.1580524,14.4696429 26.002719,14.4705238 20.8465048,14.4581905 C20.5020524,14.4573095 20.3945762,14.5365952 20.397219,14.9400714 C20.4139571,17.7855476 20.4060286,20.6301429 20.4060286,23.4747381 L20.4060286,23.4747381 Z M28.5284095,37.1092381 C25.0433619,37.1092381 21.5583143,37.1092381 18.0732667,37.1083571 C16.9306714,37.1074762 16.3254571,36.4317857 16.3254571,35.1517619 C16.3245762,27.3861667 16.3245762,19.6205714 16.3254571,11.8549762 C16.3254571,10.6163571 16.9430048,9.93890476 18.0671,9.93890476 C25.0653857,9.93714286 32.0645524,9.93714286 39.0628381,9.93890476 C40.2045524,9.93890476 40.8115286,10.6172381 40.8124095,11.894619 C40.8124095,19.6443571 40.8124095,27.3949762 40.8115286,35.1447143 C40.8115286,36.4485238 40.2089571,37.1083571 39.026719,37.1092381 L28.5284095,37.1092381 Z" id="Fill-4"></path>
                    <path d="M28.5358976,46.1653405 C25.051731,46.1653405 21.5666833,46.1662214 18.0825167,46.1653405 C16.9337548,46.1644595 16.3294214,45.4922929 16.3250167,44.2193167 C16.3241357,43.9673643 16.3223738,43.7162929 16.3250167,43.4643405 C16.3391119,42.34465 16.9707548,41.6390071 17.9768024,41.6381262 C21.1209214,41.6346024 24.2650405,41.6363643 27.4109214,41.6363643 C31.2915167,41.6363643 35.1729929,41.6363643 39.0535881,41.6372452 C40.201469,41.6372452 40.8075643,42.3102929 40.811969,43.583269 C40.81285,43.8343405 40.8146119,44.0871738 40.8110881,44.3382452 C40.7978738,45.4552929 40.164469,46.1635786 39.1601833,46.1644595 C35.6178738,46.1671024 32.0773262,46.1653405 28.5358976,46.1653405" id="Fill-6"></path>
                    <path d="M55.0986381,14.4669119 C57.9176857,14.4669119 60.7349714,14.466031 63.5549,14.4669119 C64.6781143,14.4669119 65.2921381,15.1434833 65.2983048,16.3803405 C65.2991857,16.6948405 65.3071143,17.0093405 65.294781,17.3229595 C65.2551381,18.2717452 64.6129238,18.9897214 63.7610429,18.9906024 C57.9811143,18.998531 52.2029476,18.998531 46.424781,18.9906024 C45.573781,18.9888405 44.9333286,18.2655786 44.8972095,17.3159119 C44.8822333,16.9556024 44.8866381,16.593531 44.8936857,16.2314595 C44.9148286,15.1769595 45.5588048,14.4695548 46.515519,14.4677929 C49.3768524,14.4633881 52.2373048,14.4669119 55.0986381,14.4669119" id="Fill-8"></path>
                    <path d="M55.099519,23.5233667 C57.9176857,23.5233667 60.7358524,23.5224857 63.5549,23.5233667 C64.6789952,23.5242476 65.2921381,24.200819 65.2983048,25.4376762 C65.2991857,25.7530571 65.3071143,26.0675571 65.294781,26.3811762 C65.2542571,27.329081 64.6120429,28.0470571 63.7601619,28.0479381 C57.9811143,28.0549857 52.2020667,28.0549857 46.4239,28.0470571 C45.590519,28.0461762 44.9474238,27.3414143 44.8998524,26.4190571 C44.8804714,26.0428905 44.8866381,25.6649619 44.8954476,25.2879143 C44.9148286,24.2325333 45.5588048,23.5260095 46.5164,23.5251286 C49.3768524,23.5207238 52.2381857,23.5233667 55.099519,23.5233667" id="Fill-10"></path>
                    <path d="M55.0926476,37.1088857 C52.274481,37.1088857 49.4563143,37.1097667 46.6363857,37.1080048 C45.5131714,37.1080048 44.8982667,36.4314333 44.892981,35.1945762 C44.891219,34.8800762 44.8841714,34.5655762 44.8973857,34.2519571 C44.9370286,33.3031714 45.5783619,32.5851952 46.4302429,32.5843143 C52.2092905,32.5772667 57.9883381,32.5772667 63.7665048,32.5843143 C64.6157429,32.5851952 65.2588381,33.3093381 65.2949571,34.2581238 C65.3081714,34.6193143 65.3046476,34.9813857 65.2976,35.3425762 C65.2764571,36.3979571 64.6333619,37.1053619 63.6757667,37.1062429 C60.8144333,37.1115286 57.953981,37.1088857 55.0926476,37.1088857" id="Fill-12"></path>
                    <path d="M55.138281,41.6366286 C57.9282571,41.6366286 60.7182333,41.6366286 63.5090905,41.6366286 C64.7063048,41.6375095 65.2965429,42.2991048 65.2983048,43.6416762 C65.2991857,43.9244619 65.3071143,44.2081286 65.2956619,44.4909143 C65.256019,45.438819 64.6138048,46.1594381 63.7636857,46.1612 C57.9846381,46.1682476 52.2064714,46.1682476 46.4274238,46.1612 C45.5764238,46.1594381 44.9342095,45.438819 44.8972095,44.4900333 C44.8822333,44.1288429 44.887519,43.7667714 44.8936857,43.405581 C44.9148286,42.349319 45.5579238,41.6401524 46.5119952,41.6392714 C49.3883048,41.6339857 52.2628524,41.6366286 55.138281,41.6366286" id="Fill-14"></path>
                </g>
            </g>
        </g>
    </g>
</svg>