<?xml version="1.0" encoding="UTF-8" standalone="no"?>
<svg width="52px" height="42px" viewBox="0 0 52 42" version="1.1" xmlns="http://www.w3.org/2000/svg" xmlns:xlink="http://www.w3.org/1999/xlink">
    <!-- Generator: Sketch 47 (45396) - http://www.bohemiancoding.com/sketch -->
    <title>Page 1</title>
    <desc>Created with Sketch.</desc>
    <defs></defs>
    <g id="Popuestas" stroke="none" stroke-width="1" fill="none" fill-rule="evenodd">
        <g id="Extra-large:-Desktops---12-col-Copy-5" transform="translate(-453.000000, -2615.000000)" fill="#FFFFFF">
            <path d="M471.202455,2630.2883 C470.790494,2630.53242 470.419468,2630.75173 470.048442,2630.9717 C469.24921,2631.44622 468.44413,2631.91226 467.650746,2632.39788 C466.563661,2633.063 466.001599,2634.03685 466.000949,2635.32532 C466.0003,2636.7763 465.997051,2638.22729 466.004848,2639.67828 C466.006148,2639.85713 465.951566,2639.95112 465.796918,2640.03858 C462.100307,2642.13967 458.406946,2644.24664 454.712284,2646.35035 C454.254838,2646.61013 453.943592,2646.52005 453.676532,2646.06054 C453.499141,2645.75572 453.324999,2645.44895 453.148908,2645.14282 C452.886396,2644.68723 452.96632,2644.36413 453.425716,2644.09978 C454.528396,2643.46469 455.634975,2642.83547 456.740254,2642.20429 C458.880637,2640.98241 461.01972,2639.75791 463.163351,2638.54255 C463.34464,2638.44008 463.410268,2638.32846 463.407019,2638.11829 C463.394673,2637.17511 463.387526,2636.23129 463.40507,2635.28876 C463.446656,2633.05713 464.416131,2631.33722 466.307647,2630.17277 C467.884018,2629.20218 469.484431,2628.27337 471.078997,2627.33281 C471.254438,2627.22902 471.344108,2627.11088 471.390243,2626.90201 C471.733977,2625.35377 472.56115,2624.12275 473.890604,2623.26573 C475.03617,2622.52751 476.16874,2621.76252 477.376036,2621.12874 C478.589179,2620.49169 479.89849,2620.22277 481.263032,2620.22211 C483.710112,2620.22016 486.156542,2620.22016 488.602971,2620.22407 C488.771265,2620.22407 488.916166,2620.18687 489.062367,2620.10267 C491.94675,2618.45456 494.833083,2616.80971 497.718765,2615.16422 C498.219747,2614.87833 498.533592,2614.95991 498.821445,2615.45467 C498.994287,2615.75166 499.163881,2616.05126 499.331524,2616.35151 C499.595986,2616.82603 499.507615,2617.14847 499.041072,2617.41348 C496.670667,2618.76003 494.300261,2620.10658 491.929856,2621.45314 C491.200151,2621.86826 490.467196,2622.27817 489.74139,2622.69917 C489.586092,2622.78925 489.433393,2622.82645 489.255353,2622.82645 C486.447644,2622.82515 483.639935,2622.81927 480.832227,2622.83755 C479.895241,2622.84342 479.017385,2623.1267 478.216204,2623.61232 C477.27467,2624.1841 476.346131,2624.77677 475.414343,2625.36552 C474.335705,2626.04695 473.793787,2627.02146 473.798985,2628.31188 C473.808082,2630.83267 473.791188,2633.35411 473.806782,2635.87556 C473.81393,2636.96037 474.327258,2637.76974 475.299982,2638.24035 C476.847763,2638.98967 478.617119,2638.05041 478.946559,2636.3305 C478.990744,2636.09748 479.00374,2635.86381 479.00374,2635.62818 C479.00244,2634.05905 479.006989,2632.48992 478.998542,2630.92079 C478.997242,2630.71844 479.047925,2630.66427 479.251957,2630.66427 C483.071376,2630.6708 486.890146,2630.66231 490.708915,2630.6721 C492.854496,2630.67798 494.560824,2632.39527 494.60176,2634.56033 C494.608908,2634.91345 494.612806,2635.26788 494.599811,2635.621 C494.592013,2635.84488 494.645945,2635.86381 494.831133,2635.75415 C496.261304,2634.90888 497.695373,2634.0708 499.128792,2633.23075 C500.492035,2632.43248 501.854628,2631.63225 503.219171,2630.83593 C503.746794,2630.5285 504.047643,2630.6127 504.35629,2631.1414 C504.520035,2631.42338 504.68313,2631.7047 504.842977,2631.98863 C505.118484,2632.47817 505.036612,2632.79408 504.556423,2633.07606 C502.859192,2634.07145 501.160011,2635.06554 499.461481,2636.05962 C497.677179,2637.10397 495.892877,2638.14831 494.107276,2639.19135 C493.996163,2639.25597 493.905844,2639.33495 493.829819,2639.44135 C493.256061,2640.24223 492.517259,2640.80748 491.539987,2641.00982 C491.332706,2641.0529 491.35155,2641.18279 491.3522,2641.329 C491.359347,2642.60245 491.003267,2643.75906 490.231975,2644.77469 C489.474329,2645.77269 488.492508,2646.4476 487.285213,2646.77918 C487.103924,2646.82944 487.012955,2646.90581 486.957073,2647.10423 C486.307291,2649.40375 484.816041,2650.8456 482.511264,2651.42717 C482.110998,2651.52835 481.694488,2651.5662 481.277328,2651.5662 C478.632714,2651.56425 475.986801,2651.56686 473.341538,2651.56163 C473.152452,2651.56098 472.993905,2651.60928 472.833409,2651.70327 C470.036097,2653.33898 467.236185,2654.97208 464.436924,2656.60517 C463.91125,2656.9113 463.625996,2656.83689 463.321898,2656.31471 C463.157503,2656.03274 462.996357,2655.75011 462.833911,2655.46749 C462.546708,2654.96947 462.62793,2654.66465 463.132161,2654.36831 C463.855369,2653.94274 464.580526,2653.51848 465.305033,2653.09421 C467.596165,2651.75419 469.887946,2650.41546 472.177129,2649.07217 C472.32333,2648.98602 472.467581,2648.95012 472.635875,2648.95077 C475.479971,2648.95403 478.324068,2648.95338 481.167514,2648.95273 C482.892686,2648.95273 484.211744,2647.85159 484.502196,2646.14605 C484.586018,2645.65455 484.538584,2645.15065 484.528188,2644.65263 C484.522989,2644.41961 484.599014,2644.37066 484.81799,2644.37066 C485.402145,2644.37196 485.988248,2644.41896 486.568504,2644.27406 C487.805689,2643.96532 488.738776,2642.80675 488.751122,2641.52482 C488.759569,2640.63582 488.753721,2639.74682 488.753721,2638.85847 C488.754371,2638.50535 488.754371,2638.50535 489.118898,2638.50535 C489.633526,2638.5047 490.148153,2638.50861 490.662781,2638.50404 C491.450967,2638.49752 492.000682,2637.93945 492.003281,2637.14444 C492.00653,2636.3194 492.00653,2635.49372 492.003281,2634.66803 C492.000032,2633.82407 491.452266,2633.28101 490.607549,2633.28101 C487.717968,2633.28101 484.829687,2633.28623 481.940105,2633.27383 C481.645754,2633.27252 481.589223,2633.36195 481.595721,2633.63348 C481.613915,2634.35864 481.602868,2635.08446 481.602219,2635.80963 C481.600269,2638.43877 479.804921,2640.59208 477.231134,2641.05355 C474.799649,2641.48957 472.377911,2639.99877 471.526047,2637.54259 C471.304471,2636.90293 471.201156,2636.24499 471.201806,2635.56878 C471.203105,2633.82799 471.202455,2632.08719 471.202455,2630.2883" id="Page-1"></path>
        </g>
    </g>
</svg>