<?xml version="1.0" encoding="UTF-8" standalone="no"?>
<svg width="55px" height="55px" viewBox="0 0 55 55" version="1.1" xmlns="http://www.w3.org/2000/svg" xmlns:xlink="http://www.w3.org/1999/xlink">
    <!-- Generator: Sketch 47 (45396) - http://www.bohemiancoding.com/sketch -->
    <title>Page 1</title>
    <desc>Created with Sketch.</desc>
    <defs>
        <polygon id="path-1" points="0 54.9999785 0 0.072568857 54.9999785 0.072568857 54.9999785 54.9999785"></polygon>
        <polygon id="path-3" points="0 55 55 55 55 0 0 0"></polygon>
    </defs>
    <g id="Finale" stroke="none" stroke-width="1" fill="none" fill-rule="evenodd">
        <g id="Extra-large:-Desktops---12-col-Copy-7" transform="translate(-483.000000, -1248.000000)">
            <g id="Page-1" transform="translate(483.000000, 1248.000000)">
                <g id="Group-3">
                    <mask id="mask-2" fill="white">
                        <use xlink:href="#path-1"></use>
                    </mask>
                    <g id="Clip-2"></g>
                    <path d="M12.0569023,8.61908008 L11.4086113,8.61908008 C9.31420703,8.61908008 7.21980273,8.61854297 5.12529102,8.61929492 C3.8204375,8.61972461 3.48388477,8.95960742 3.48388477,10.2825078 C3.48334766,23.4040898 3.48334766,36.5255645 3.48495898,49.6471465 C3.48495898,49.951043 3.47797656,50.2585918 3.5204082,50.5579766 C3.59366992,51.07575 3.91142383,51.3938262 4.42747852,51.4767559 C4.69044727,51.5190801 4.96254688,51.514998 5.23045703,51.514998 C13.822918,51.5167168 22.4154863,51.516502 31.0079473,51.5163945 C37.3450859,51.5163945 43.6821172,51.5172539 50.019041,51.5151055 C51.1084063,51.5147832 51.4973809,51.1516973 51.4974883,50.1485918 C51.497918,36.8122734 51.497918,23.4758477 51.4970586,10.1395293 C51.4969512,8.99118945 51.1311797,8.62133594 49.9905742,8.61993945 C47.8427813,8.61725391 45.6949883,8.61843555 43.5471953,8.62036914 C43.357166,8.62047656 43.1672441,8.6373418 42.9317754,8.64862109 C42.9317754,9.77741016 42.9477813,10.8494805 42.9272637,11.9207988 C42.9057793,13.042498 42.1989434,13.7675957 41.1841289,13.7545977 C40.189832,13.7418145 39.5294023,13.0244512 39.514793,11.916502 C39.5028691,11.0036309 39.489334,10.0896855 39.5224199,9.17799609 C39.5389629,8.72209766 39.3816973,8.60812305 38.943416,8.61059375 C35.8823223,8.62756641 32.8212285,8.6191875 29.7601348,8.62069141 C29.5869707,8.62079883 29.4139141,8.63626758 29.2064824,8.64625781 C29.2064824,8.87807422 29.2065898,9.05542773 29.2064824,9.23288867 C29.2057305,10.1636992 29.2191582,11.094832 29.2006816,12.0253203 C29.1803789,13.0469023 28.4481914,13.7631914 27.4687188,13.754168 C26.5195391,13.7455742 25.8122734,13.0239141 25.793582,12.0290801 C25.7821953,11.4206426 25.7911113,10.8117754 25.7910039,10.203123 C25.7908965,9.6916875 25.7908965,9.18025195 25.7908965,8.65753711 L15.4759258,8.65753711 C15.4759258,8.88720508 15.476248,9.07895313 15.4758184,9.27070117 C15.4739922,10.2194512 15.49075,11.1687383 15.4646465,12.1168438 C15.4376836,13.0956719 14.6817559,13.781668 13.7120586,13.7529863 C12.7525664,13.724627 12.0781719,12.9996367 12.0607695,11.9359453 C12.0432598,10.863875 12.0569023,9.79126758 12.0569023,8.61908008 M-2.1484375e-05,50.4882598 L-2.1484375e-05,9.66794727 C0.0275859375,9.58351367 0.0669023438,9.50090625 0.0809746094,9.41432422 C0.526775391,6.66271289 2.22866016,5.19930469 5.00336719,5.19339648 C7.13386523,5.18888477 9.26436328,5.19242969 11.3948613,5.19242969 L12.0559355,5.19242969 C12.0559355,4.37795703 12.0468047,3.64673633 12.0591582,2.91583789 C12.067752,2.39870898 12.046375,1.87073047 12.1435918,1.36788867 C12.3066582,0.523660156 13.080418,0.00255664063 13.9275469,0.0804375 C14.7847734,0.159285156 15.4223223,0.798337891 15.4626055,1.66158008 C15.4909648,2.26905078 15.4746367,2.87866992 15.4763555,3.48732227 C15.477752,4.03657031 15.4765703,4.58592578 15.4765703,5.14656055 L25.7921855,5.14656055 C25.7921855,4.54779102 25.7919707,3.99467578 25.792293,3.44156055 C25.7925078,2.88661914 25.7794023,2.33114063 25.7966973,1.77662891 C25.8322539,0.639783203 26.7760625,-0.109591797 27.8742363,0.112449219 C28.6558379,0.270574219 29.195418,0.953025391 29.2044414,1.83227344 C29.2156133,2.93624805 29.207127,4.04033008 29.207127,5.16127734 L39.5241387,5.16127734 C39.5241387,4.93923633 39.523709,4.74791797 39.5241387,4.55659961 C39.5261797,3.60774219 39.5107109,2.65845508 39.5355254,1.71024219 C39.5591582,0.813269531 40.1999297,0.15778125 41.0769219,0.0797929688 C41.9427422,0.0026640625 42.7221953,0.549333984 42.8720488,1.42299609 C42.9617461,1.94635547 42.9332793,2.49152148 42.9406914,3.02701953 C42.950252,3.73589648 42.9429473,4.44488086 42.9429473,5.19242969 C43.2356719,5.19242969 43.4477227,5.19242969 43.6599883,5.19242969 C45.8441973,5.19253711 48.0285137,5.18158008 50.2126152,5.19586719 C52.5240117,5.21090625 54.3221465,6.6160918 54.8285332,8.77860156 C54.8972832,9.07240039 54.9433672,9.37135547 54.9999785,9.66794727 L54.9999785,50.3808379 C54.9665703,50.5517461 54.9212383,50.7213652 54.9013652,50.8938848 C54.6836211,52.7866582 53.371248,54.3078594 51.5263848,54.7868535 C51.184998,54.8754766 50.8345879,54.929832 50.4882598,54.9999785 L4.51169727,54.9999785 C4.37344531,54.9675371 4.23691211,54.9227422 4.09672656,54.9044805 C2.1267168,54.6458086 0.626033203,53.301209 0.172820313,51.3770684 C0.103640625,51.0834844 0.0570195313,50.7846367 -2.1484375e-05,50.4882598" id="Fill-1" fill="#939DAD" mask="url(#mask-2)"></path>
                </g>
                <mask id="mask-4" fill="white">
                    <use xlink:href="#path-3"></use>
                </mask>
                <g id="Clip-5"></g>
                <polygon id="Fill-4" fill="#939DAD" mask="url(#mask-4)" points="12 26 19 26 19 21 12 21"></polygon>
                <polygon id="Fill-6" fill="#939DAD" mask="url(#mask-4)" points="24 26 31 26 31 21 24 21"></polygon>
                <polygon id="Fill-7" fill="#939DAD" mask="url(#mask-4)" points="36 26 43 26 43 21 36 21"></polygon>
                <polygon id="Fill-8" fill="#939DAD" mask="url(#mask-4)" points="12 35 19 35 19 30 12 30"></polygon>
                <polygon id="Fill-9" fill="#939DAD" mask="url(#mask-4)" points="24 35 31 35 31 30 24 30"></polygon>
                <polygon id="Fill-10" fill="#939DAD" mask="url(#mask-4)" points="36 35 43 35 43 30 36 30"></polygon>
                <polygon id="Fill-11" fill="#939DAD" mask="url(#mask-4)" points="12 43 19 43 19 38 12 38"></polygon>
                <polygon id="Fill-12" fill="#939DAD" mask="url(#mask-4)" points="24 43 31 43 31 38 24 38"></polygon>
                <polygon id="Fill-13" fill="#939DAD" mask="url(#mask-4)" points="36 43 43 43 43 38 36 38"></polygon>
            </g>
        </g>
    </g>
</svg>