<?xml version="1.0" encoding="UTF-8" standalone="no"?>
<svg width="46px" height="46px" viewBox="0 0 46 46" version="1.1" xmlns="http://www.w3.org/2000/svg" xmlns:xlink="http://www.w3.org/1999/xlink">
    <!-- Generator: Sketch 47 (45396) - http://www.bohemiancoding.com/sketch -->
    <title>Group 13</title>
    <desc>Created with Sketch.</desc>
    <defs></defs>
    <g id="Popuestas" stroke="none" stroke-width="1" fill="none" fill-rule="evenodd">
        <g id="Extra-large:-Desktops---12-col-Copy-5" transform="translate(-579.000000, -2081.000000)">
            <g id="Group-13" transform="translate(579.000000, 2081.000000)">
                <g id="Group-6">
                    <rect id="Rectangle-8-Copy-18" fill="#2CCE7C" x="0" y="0" width="46" height="46" rx="5"></rect>
                    <path d="M13.754,18.44 L15.896,22.69 L18.089,18.44 L20.52,18.44 L17.188,24.339 L20.52,30 L17.919,30 L15.777,26.005 L13.584,30 L11.153,30 L14.485,24.458 L11.153,18.44 L13.754,18.44 Z M28.51,30 L21.931,30 L21.931,18.44 L24.277,18.44 L24.277,27.926 L28.51,27.926 L28.51,30 Z M33.508,20.276 C32.2726605,20.276 31.655,20.6839959 31.655,21.5 C31.655,21.8626685 31.8079985,22.1403324 32.114,22.333 C32.4200015,22.5256676 33.1368277,22.8033315 34.2645,23.166 C35.3921723,23.5286685 36.1826644,23.9394977 36.636,24.3985 C37.0893356,24.8575023 37.316,25.5629952 37.316,26.515 C37.316,27.7276727 36.9476704,28.6456636 36.211,29.269 C35.4743297,29.8923365 34.511006,30.204 33.321,30.204 C32.4369956,30.204 31.3546731,30.0680014 30.074,29.796 L29.462,29.677 L29.7,27.858 C31.2186743,28.062001 32.3803293,28.164 33.185,28.164 C34.3863393,28.164 34.987,27.6653383 34.987,26.668 C34.987,26.3053315 34.8481681,26.022001 34.5705,25.818 C34.2928319,25.613999 33.7403375,25.3930012 32.913,25.155 C31.5983268,24.7809981 30.671836,24.3361692 30.1335,23.8205 C29.595164,23.3048308 29.326,22.5880046 29.326,21.67 C29.326,20.5139942 29.6773298,19.6526695 30.38,19.086 C31.0826702,18.5193305 32.0459939,18.236 33.27,18.236 C34.1086709,18.236 35.1739935,18.3493322 36.466,18.576 L37.078,18.695 L36.891,20.548 C35.292992,20.3666658 34.1653366,20.276 33.508,20.276 Z" id="XLS" fill="#FFFFFF"></path>
                </g>
            </g>
        </g>
    </g>
</svg>