<?xml version="1.0" encoding="UTF-8" standalone="no"?>
<svg width="46px" height="46px" viewBox="0 0 46 46" version="1.1" xmlns="http://www.w3.org/2000/svg" xmlns:xlink="http://www.w3.org/1999/xlink">
    <!-- Generator: Sketch 47 (45396) - http://www.bohemiancoding.com/sketch -->
    <title>Group 14</title>
    <desc>Created with Sketch.</desc>
    <defs></defs>
    <g id="Popuestas" stroke="none" stroke-width="1" fill="none" fill-rule="evenodd">
        <g id="Extra-large:-Desktops---12-col-Copy-5" transform="translate(-579.000000, -2162.000000)">
            <g id="Group-14" transform="translate(579.000000, 2162.000000)">
                <g id="Group-7">
                    <rect id="Rectangle-8-Copy-19" fill="#1D72B5" x="0" y="0" width="46" height="46" rx="5"></rect>
                    <path d="M14.545,29 L11.11,29 L11.11,18.8 L14.545,18.8 C15.4250044,18.8 16.1499972,18.8924991 16.72,19.0775 C17.2900029,19.2625009 17.7324984,19.5674979 18.0475,19.9925 C18.3625016,20.4175021 18.5799994,20.9174971 18.7,21.4925 C18.8200006,22.0675029 18.88,22.8149954 18.88,23.735 C18.88,24.6550046 18.8250005,25.417497 18.715,26.0225 C18.6049995,26.627503 18.3975015,27.1674976 18.0925,27.6425 C17.7874985,28.1175024 17.3450029,28.4624989 16.765,28.6775 C16.1849971,28.8925011 15.4450045,29 14.545,29 Z M16.72,24.95 C16.7400001,24.6299984 16.75,24.1875028 16.75,23.6225 C16.75,23.0574972 16.7300002,22.6050017 16.69,22.265 C16.6499998,21.9249983 16.5550007,21.6150014 16.405,21.335 C16.2549992,21.0549986 16.0325015,20.8625005 15.7375,20.7575 C15.4424985,20.6524995 15.0450025,20.6 14.545,20.6 L13.18,20.6 L13.18,27.2 L14.545,27.2 C15.2950037,27.2 15.8399983,27.0100019 16.18,26.63 C16.4700014,26.3199984 16.6499996,25.760004 16.72,24.95 Z M24.46,27.38 C25.2700041,27.38 25.8224985,27.1175026 26.1175,26.5925 C26.4125015,26.0674974 26.56,25.1875062 26.56,23.9525 C26.56,22.7174938 26.4100015,21.8200028 26.11,21.26 C25.8099985,20.6999972 25.260004,20.42 24.46,20.42 C23.659996,20.42 23.1100015,20.6999972 22.81,21.26 C22.5099985,21.8200028 22.36,22.7174938 22.36,23.9525 C22.36,25.1875062 22.5074985,26.0674974 22.8025,26.5925 C23.0975015,27.1175026 23.649996,27.38 24.46,27.38 Z M24.46,29.18 C22.9099923,29.18 21.8175032,28.7575042 21.1825,27.9125 C20.5474968,27.0674958 20.23,25.745009 20.23,23.945 C20.23,22.144991 20.5474968,20.8075044 21.1825,19.9325 C21.8175032,19.0574956 22.9099923,18.62 24.46,18.62 C26.0100077,18.62 27.1024968,19.0574956 27.7375,19.9325 C28.3725032,20.8075044 28.69,22.144991 28.69,23.945 C28.69,25.745009 28.3725032,27.0674958 27.7375,27.9125 C27.1024968,28.7575042 26.0100077,29.18 24.46,29.18 Z M36.925,28.835 C35.8649947,29.0650012 34.9100043,29.18 34.06,29.18 C33.2099957,29.18 32.5300025,29.0750011 32.02,28.865 C31.5099974,28.6549989 31.1100014,28.3200023 30.82,27.86 C30.5299985,27.3999977 30.3300005,26.8600031 30.22,26.24 C30.1099994,25.6199969 30.055,24.8400047 30.055,23.9 C30.055,21.9299902 30.3324972,20.5575039 30.8875,19.7825 C31.4425028,19.0074961 32.4649926,18.62 33.955,18.62 C34.8150043,18.62 35.8099943,18.7549986 36.94,19.025 L36.88,20.675 C35.889995,20.5249993 35.0675033,20.45 34.4125,20.45 C33.7574967,20.45 33.2900014,20.5374991 33.01,20.7125 C32.7299986,20.8875009 32.5225007,21.2199976 32.3875,21.71 C32.2524993,22.2000024 32.185,23.0349941 32.185,24.215 C32.185,25.3950059 32.3224986,26.2124977 32.5975,26.6675 C32.8725014,27.1225023 33.4224959,27.35 34.2475,27.35 C35.0725041,27.35 35.9499953,27.2800007 36.88,27.14 L36.925,28.835 Z" id="DOC" fill="#FFFFFF"></path>
                </g>
            </g>
        </g>
    </g>
</svg>