<?xml version="1.0" encoding="UTF-8" standalone="no"?>
<svg width="46px" height="46px" viewBox="0 0 46 46" version="1.1" xmlns="http://www.w3.org/2000/svg" xmlns:xlink="http://www.w3.org/1999/xlink">
    <!-- Generator: Sketch 47 (45396) - http://www.bohemiancoding.com/sketch -->
    <title>Group 15</title>
    <desc>Created with Sketch.</desc>
    <defs></defs>
    <g id="Popuestas" stroke="none" stroke-width="1" fill="none" fill-rule="evenodd">
        <g id="Extra-large:-Desktops---12-col-Copy-5" transform="translate(-579.000000, -2235.000000)">
            <g id="Group-15" transform="translate(579.000000, 2235.000000)">
                <g id="Group-8">
                    <rect id="Rectangle-8-Copy-20" fill="#DAB4DA" x="0" y="0" width="46" height="46" rx="5"></rect>
                    <path d="M11.323,31.19 L11.323,29.15 C11.7763356,29.15 12.104999,29.0650009 12.309,28.895 C12.513001,28.7249992 12.615,28.407669 12.615,27.943 L12.615,18.44 L14.944,18.44 L14.961,28.045 C14.961,29.2803395 14.6861694,30.1133312 14.1365,30.544 C13.5868306,30.9746688 12.6490066,31.19 11.323,31.19 Z M21.642,26.634 L19.738,26.634 L19.738,30 L17.392,30 L17.392,18.44 L21.642,18.44 C24.3846804,18.44 25.756,19.77732 25.756,22.452 C25.756,23.8006734 25.4075035,24.8348297 24.7105,25.5545 C24.0134965,26.2741703 22.9906734,26.634 21.642,26.634 Z M19.738,24.628 L21.625,24.628 C22.7923392,24.628 23.376,23.9026739 23.376,22.452 C23.376,21.7379964 23.2343348,21.2251682 22.951,20.9135 C22.6676652,20.6018318 22.2256697,20.446 21.625,20.446 L19.738,20.446 L19.738,24.628 Z M32.216,25.852 L32.216,23.812 L35.582,23.812 L35.582,29.813 C33.9613252,30.073668 32.6466717,30.204 31.638,30.204 C29.835991,30.204 28.5978367,29.7223381 27.9235,28.759 C27.2491633,27.7956619 26.912,26.2656772 26.912,24.169 C26.912,22.0723228 27.2633298,20.559338 27.966,19.63 C28.6686702,18.700662 29.8643249,18.236 31.553,18.236 C32.6070053,18.236 33.7459939,18.3549988 34.97,18.593 L35.582,18.712 L35.514,20.531 C34.1539932,20.3836659 33.0405043,20.31 32.1735,20.31 C31.3064957,20.31 30.6973351,20.411999 30.346,20.616 C29.9946649,20.820001 29.7368342,21.1968306 29.5725,21.7465 C29.4081658,22.2961694 29.326,23.2368267 29.326,24.5685 C29.326,25.9001733 29.4903317,26.8323307 29.819,27.365 C30.1476683,27.8976693 30.8276615,28.164 31.859,28.164 L33.27,28.096 L33.27,25.852 L32.216,25.852 Z" id="JPG" fill="#FFFFFF"></path>
                </g>
            </g>
        </g>
    </g>
</svg>