<?xml version="1.0" encoding="UTF-8" standalone="no"?>
<svg width="46px" height="46px" viewBox="0 0 46 46" version="1.1" xmlns="http://www.w3.org/2000/svg" xmlns:xlink="http://www.w3.org/1999/xlink">
    <!-- Generator: Sketch 47 (45396) - http://www.bohemiancoding.com/sketch -->
    <title>Group 12</title>
    <desc>Created with Sketch.</desc>
    <defs></defs>
    <g id="Popuestas" stroke="none" stroke-width="1" fill="none" fill-rule="evenodd">
        <g id="Extra-large:-Desktops---12-col-Copy-5" transform="translate(-579.000000, -2010.000000)">
            <g id="Group-12" transform="translate(579.000000, 2010.000000)">
                <rect id="Rectangle-8-Copy-17" fill="#E84C37" x="0" y="0" width="46" height="46" rx="5"></rect>
                <path d="M14.508,25.634 L12.604,25.634 L12.604,29 L10.258,29 L10.258,17.44 L14.508,17.44 C17.2506804,17.44 18.622,18.77732 18.622,21.452 C18.622,22.8006734 18.2735035,23.8348297 17.5765,24.5545 C16.8794965,25.2741703 15.8566734,25.634 14.508,25.634 Z M12.604,23.628 L14.491,23.628 C15.6583392,23.628 16.242,22.9026739 16.242,21.452 C16.242,20.7379964 16.1003347,20.2251682 15.817,19.9135 C15.5336652,19.6018318 15.0916697,19.446 14.491,19.446 L12.604,19.446 L12.604,23.628 Z M24.164,29 L20.271,29 L20.271,17.44 L24.164,17.44 C25.1613383,17.44 25.9829968,17.5448323 26.629,17.7545 C27.2750032,17.9641677 27.7764982,18.3098309 28.1335,18.7915 C28.4905018,19.2731691 28.7369993,19.8398301 28.873,20.4915 C29.0090007,21.1431699 29.077,21.9903281 29.077,23.033 C29.077,24.0756719 29.0146673,24.9398299 28.89,25.6255 C28.7653327,26.3111701 28.5301684,26.923164 28.1845,27.4615 C27.8388316,27.999836 27.3373366,28.3908321 26.68,28.6345 C26.0226634,28.8781679 25.1840051,29 24.164,29 Z M26.629,24.41 C26.6516668,24.0473315 26.663,23.5458365 26.663,22.9055 C26.663,22.2651635 26.6403336,21.7523353 26.595,21.367 C26.5496664,20.9816647 26.4420008,20.6303349 26.272,20.313 C26.1019991,19.9956651 25.849835,19.7775006 25.5155,19.6585 C25.181165,19.5394994 24.7306695,19.48 24.164,19.48 L22.617,19.48 L22.617,26.96 L24.164,26.96 C25.0140042,26.96 25.6316647,26.7446688 26.017,26.314 C26.3456683,25.9626649 26.5496663,25.3280046 26.629,24.41 Z M31.117,29 L31.117,17.44 L38.495,17.44 L38.495,19.48 L33.463,19.48 L33.463,22.88 L37.577,22.88 L37.577,24.92 L33.463,24.92 L33.463,29 L31.117,29 Z" id="PDF" fill="#FFFFFF"></path>
            </g>
        </g>
    </g>
</svg>