<?xml version="1.0" encoding="UTF-8" standalone="no"?>
<svg width="36px" height="42px" viewBox="0 0 36 42" version="1.1" xmlns="http://www.w3.org/2000/svg" xmlns:xlink="http://www.w3.org/1999/xlink">
    <!-- Generator: Sketch 47 (45396) - http://www.bohemiancoding.com/sketch -->
    <title>Page 1</title>
    <desc>Created with Sketch.</desc>
    <defs>
        <polygon id="path-1" points="1.35525272e-20 0.613454545 35.3905263 0.613454545 35.3905263 41.3636364 1.35525272e-20 41.3636364 1.35525272e-20 0.613772727 -0.000117738791 41.3636395 35.3902282 41.3636395 35.3902282 0.613772727 2.71050543e-20 0.613772727"></polygon>
    </defs>
    <g id="Popuestas" stroke="none" stroke-width="1" fill="none" fill-rule="evenodd">
        <g id="Extra-large:-Desktops---12-col-Copy-5" transform="translate(-165.000000, -2755.000000)">
            <g id="Page-1" transform="translate(165.000000, 2755.000000)">
                <g id="Group-3" transform="translate(0.000000, 0.022655)">
                    <mask id="mask-2" fill="white">
                        <use xlink:href="#path-1"></use>
                    </mask>
                    <g id="Clip-2"></g>
                </g>
                <path d="M21.4576421,13.3701273 C19.3090105,13.3701273 17.1597474,13.3701273 15.0111158,13.3701273 C14.2677474,13.3701273 13.9039579,12.9997636 13.9026947,12.2431273 C13.9026947,12.1107636 13.9014316,11.9784 13.9026947,11.8460364 C13.9102737,11.2217636 14.3062737,10.8246727 14.9309053,10.8246727 C17.4477474,10.8227636 19.9652211,10.8240364 22.4826947,10.8240364 C24.3155368,10.8240364 26.1490105,10.8234 27.9824842,10.8240364 C28.6866947,10.8240364 29.0637474,11.2077636 29.0669053,11.9249455 C29.0675368,12.0751273 29.0700632,12.2253091 29.0662737,12.3754909 C29.0511158,12.9692182 28.6525895,13.3688545 28.0620632,13.3694909 C25.8610105,13.3714 23.6593263,13.3701273 21.4576421,13.3701273" id="Fill-4" fill="#FFFFFF"></path>
                <path d="M2.52941053,32.4632 C3.00309474,32.1469273 3.44583158,31.8650182 3.93593684,31.6722 C4.79551579,31.3336545 5.68793684,31.1834727 6.61004211,31.1936545 C6.92393684,31.1968364 7.34330526,31.3266545 7.52456842,31.1459273 C7.71972632,30.9512 7.58204211,30.5273818 7.58204211,30.2034727 C7.58456842,21.3185636 7.58393684,12.4330182 7.58393684,3.54810909 C7.58393684,3.46856364 7.58077895,3.38901818 7.58393684,3.30947273 C7.58772632,3.22038182 7.55172632,3.18283636 7.46141053,3.18347273 C6.94351579,3.1892 6.41930526,3.13892727 5.90962105,3.20383636 C3.73951579,3.48192727 2.51298947,5.31083636 2.51804211,7.13465455 C2.54330526,15.4716545 2.52941053,23.8086545 2.52941053,32.1450182 L2.52941053,32.4632 Z M18.7717263,38.8357455 L31.6161474,38.8357455 C31.9489895,38.8357455 31.9401474,38.8363818 31.8959368,38.4952909 C31.7058316,37.0342 31.7039368,35.5718364 31.8953053,34.1107455 C31.9433053,33.7416545 31.9515158,33.7422909 31.5908842,33.7422909 C24.1243579,33.7422909 16.6584632,33.7422909 9.19256842,33.7429273 C8.12204211,33.7429273 7.05088421,33.7244727 5.98162105,33.7524727 C5.08414737,33.7760182 4.2252,33.9790182 3.48751579,34.5339273 C2.89572632,34.9800182 2.51488421,35.5584727 2.53446316,36.3284727 C2.55656842,37.2098364 3.05614737,37.8048364 3.77046316,38.2350182 C4.55425263,38.7078364 5.42456842,38.8357455 6.32204211,38.8357455 C10.4721474,38.8351091 14.6216211,38.8357455 18.7717263,38.8357455 L18.7717263,38.8357455 Z M10.1115158,17.1822 C10.1115158,21.7436545 10.1134105,26.3057455 10.1058316,30.8672 C10.1052,31.1236545 10.1513053,31.2038364 10.4279368,31.2032 C17.7984632,31.1942909 25.1683579,31.1942909 32.5388842,31.2032 C32.8085684,31.2032 32.8641474,31.1325636 32.8641474,30.8703818 C32.8572,21.7468364 32.8572,12.6226545 32.8635158,3.49910909 C32.8635158,3.2522 32.8174105,3.17710909 32.5546737,3.17710909 C25.1753053,3.18538182 17.7965684,3.18538182 10.4172,3.17710909 C10.1595158,3.17710909 10.1052,3.24456364 10.1058316,3.49656364 C10.1134105,8.05801818 10.1115158,12.6201091 10.1115158,17.1822 L10.1115158,17.1822 Z M35.3854105,17.2172 C35.3854105,22.0268364 35.3822526,26.8364727 35.3879368,31.6454727 C35.3892,32.4899273 35.0721474,33.1326545 34.3243579,33.5373818 C34.2289895,33.5889273 34.1904632,33.6570182 34.1715158,33.7632909 C33.9517263,34.9787455 33.9207789,36.2024727 33.9984632,37.4325636 C34.0230947,37.8207455 34.0679368,38.2057455 34.1216211,38.5907455 C34.1462526,38.7651091 34.2005684,38.8427455 34.3995158,38.8414727 C34.9679368,38.8402 35.3544632,39.2264727 35.3828842,39.7985636 C35.3929895,40.0104727 35.3923579,40.2230182 35.3828842,40.4349273 C35.3582526,40.9822 34.9559368,41.3767455 34.4115158,41.3805636 C33.6308842,41.3862909 32.8496211,41.3824727 32.0689895,41.3824727 C23.5224632,41.3824727 14.9765684,41.3952 6.43004211,41.3742 C3.7212,41.3678364 1.75383158,40.0842909 0.562673684,37.6292 C0.152147368,36.7834727 0.0012,35.8709273 0.00183157895,34.9310182 C0.00246315789,31.4125636 0.00183157895,27.8941091 0.00183157895,24.3756545 C0.00183157895,18.5669273 -0.00448421053,12.7588364 0.00562105263,6.95010909 C0.00877894737,5.00665455 0.790042105,3.40747273 2.24330526,2.1462 C3.41298947,1.13183636 4.79235789,0.641836364 6.32772632,0.6412 C15.3649895,0.6342 24.4028842,0.636109091 33.4401474,0.639290909 C34.5997263,0.639927273 35.3847789,1.47356364 35.3847789,2.68329091 C35.3860421,7.52792727 35.3854105,12.3725636 35.3854105,17.2172 L35.3854105,17.2172 Z" id="Fill-1" fill="#FFFFFF"></path>
                <path d="M21.4817053,15.9168545 C23.6486526,15.9168545 25.8143368,15.9168545 27.9812842,15.9168545 C28.6861263,15.9168545 29.0638105,16.3005818 29.0669684,17.0171273 C29.0676,17.1584 29.0688632,17.2996727 29.0663368,17.4409455 C29.0562316,18.0664909 28.6608632,18.4623091 28.0368632,18.4623091 C25.5282316,18.4642182 23.0202316,18.4629455 20.5116,18.4629455 C18.6692842,18.4629455 16.8276,18.4635818 14.9859158,18.4629455 C14.2772842,18.4629455 13.9052842,18.0836727 13.9027579,17.3639455 C13.9021263,17.2226727 13.9014947,17.0814 13.9027579,16.9401273 C13.9103368,16.3145818 14.3057053,15.9174909 14.9297053,15.9174909 C17.1137053,15.9155818 19.2977053,15.9168545 21.4817053,15.9168545" id="Fill-6" fill="#FFFFFF"></path>
            </g>
        </g>
    </g>
</svg>