<?xml version="1.0" encoding="UTF-8" standalone="no"?>
<svg width="31px" height="31px" viewBox="0 0 31 31" version="1.1" xmlns="http://www.w3.org/2000/svg" xmlns:xlink="http://www.w3.org/1999/xlink">
    <!-- Generator: Sketch 47 (45396) - http://www.bohemiancoding.com/sketch -->
    <title>link</title>
    <desc>Created with Sketch.</desc>
    <defs></defs>
    <g id="Popuestas" stroke="none" stroke-width="1" fill="none" fill-rule="evenodd" stroke-linecap="round" stroke-linejoin="round">
        <g id="Extra-large:-Desktops---12-col-Copy-5" transform="translate(-939.000000, -1935.000000)" stroke="#FFFFFF" stroke-width="2">
            <g id="link" transform="translate(940.000000, 1936.000000)">
                <path d="M12,16.0555481 C13.2368375,17.7614533 15.1308642,18.8290382 17.1904999,18.9812195 C19.2501357,19.1334008 21.2722955,18.355173 22.7321434,16.8485191 L27.002227,12.4431247 C29.6992987,9.56215181 29.6607268,4.98270109 26.9155342,2.15051857 C24.1703416,-0.681663952 19.7315478,-0.721458141 16.9390634,2.0610786 L14.4908821,4.57215341" id="Shape"></path>
                <path d="M17,12.9444519 C15.7631625,11.2385467 13.8691358,10.1709618 11.8095001,10.0187805 C9.74986431,9.86659921 7.7277045,10.644827 6.26785658,12.1514809 L1.99777299,16.5568753 C-0.699298699,19.4378482 -0.660726781,24.0172989 2.08446582,26.8494814 C4.82965843,29.681664 9.26845224,29.7214581 12.0609366,26.9389214 L14.4948843,24.4278466" id="Shape"></path>
            </g>
        </g>
    </g>
</svg>