<?xml version="1.0" encoding="UTF-8" standalone="no"?>
<svg width="48px" height="36px" viewBox="0 0 48 36" version="1.1" xmlns="http://www.w3.org/2000/svg" xmlns:xlink="http://www.w3.org/1999/xlink">
    <!-- Generator: Sketch 47 (45396) - http://www.bohemiancoding.com/sketch -->
    <title>Fill 1</title>
    <desc>Created with Sketch.</desc>
    <defs></defs>
    <g id="Popuestas" stroke="none" stroke-width="1" fill="none" fill-rule="evenodd">
        <g id="Extra-large:-Desktops---12-col-Copy-5" transform="translate(-165.000000, -2625.000000)" fill="#FFFFFF">
            <path d="M209.997423,2637.29584 C209.858743,2637.40229 209.768789,2637.46825 209.681833,2637.53872 C208.116627,2638.79881 206.55292,2640.0604 204.987714,2641.31975 C201.938261,2643.77322 198.838584,2646.16297 195.834108,2648.67342 C194.546261,2649.74986 193.201443,2650.75058 191.636237,2651.40424 C190.433098,2651.90723 189.196975,2652.14111 187.890388,2651.88175 C186.653515,2651.63662 185.551574,2651.09016 184.503606,2650.42001 C183.176029,2649.5707 182.002125,2648.52125 180.782494,2647.52951 C178.819239,2645.93434 176.825251,2644.37815 174.850753,2642.79723 C172.965459,2641.28826 171.089161,2639.76881 169.207615,2638.25384 C168.822311,2637.94351 168.434008,2637.63617 168.001477,2637.2906 L168.001477,2637.68039 L168.001477,2656.33368 C168.001477,2657.40262 168.593677,2657.99706 169.660386,2657.99781 C182.555344,2657.99781 195.449553,2657.99781 208.344511,2657.99706 C209.384234,2657.99706 209.997423,2657.38538 209.997423,2656.35242 C209.997423,2650.12391 209.997423,2643.89541 209.997423,2637.6669 L209.997423,2637.29584 Z M189.023063,2628.00069 C182.545599,2628.00069 176.068135,2628.00069 169.591421,2628.00069 C168.632657,2628.00069 168.001477,2628.62661 168.001477,2629.57562 C168.000728,2630.55461 168.050203,2631.53659 167.984236,2632.51109 C167.939259,2633.16924 168.180636,2633.56504 168.673886,2633.96833 C171.533685,2636.30786 174.417473,2638.61666 177.299011,2640.9292 C179.40919,2642.62257 181.562098,2644.26346 183.625801,2646.01455 C184.690261,2646.91708 185.785456,2647.77763 187.025327,2648.43804 C188.186487,2649.05572 189.354395,2649.19964 190.578524,2648.6127 C191.53279,2648.15544 192.415842,2647.58873 193.22843,2646.92083 C195.850599,2644.7672 198.500505,2642.64955 201.157157,2640.53865 C204.04919,2638.24035 206.935976,2635.93455 209.777035,2633.57253 C209.932206,2633.4436 210.004919,2633.30942 210.00267,2633.09728 C209.991426,2631.94138 209.998922,2630.78549 209.997423,2629.62959 C209.995923,2628.61762 209.374489,2628.00069 208.359504,2628.00069 C201.914273,2628.00069 195.468293,2628.00069 189.023063,2628.00069 L189.023063,2628.00069 Z M188.981084,2660.99775 C182.513365,2660.99775 176.046396,2660.99924 169.580176,2660.99625 C167.370298,2660.9955 165.585453,2659.56749 165.103448,2657.42436 C165.025487,2657.07879 165,2656.72572 165,2656.37041 C165.001499,2647.43581 164.99925,2638.50047 165.002249,2629.56587 C165.003748,2626.98572 166.99024,2625.003 169.577928,2625.00225 C182.522361,2624.99925 195.466794,2624.99925 208.411227,2625.00225 C211.00791,2625.00225 212.986157,2626.98572 212.995902,2629.59661 C213.004147,2632.0958 212.997401,2634.59575 212.997401,2637.09495 C212.997401,2643.5206 212.9989,2649.9455 212.996651,2656.37041 C212.995902,2658.39435 211.871472,2660.0315 210.00267,2660.72714 C209.472689,2660.92428 208.91947,2661.00074 208.350508,2660.99999 C201.894034,2660.9955 195.437559,2660.99775 188.981084,2660.99775 L188.981084,2660.99775 Z" id="Fill-1"></path>
        </g>
    </g>
</svg>