<?xml version="1.0" encoding="UTF-8" standalone="no"?>
<svg width="19px" height="19px" viewBox="0 0 19 19" version="1.1" xmlns="http://www.w3.org/2000/svg" xmlns:xlink="http://www.w3.org/1999/xlink">
    <!-- Generator: Sketch 47 (45396) - http://www.bohemiancoding.com/sketch -->
    <title>Fill 1 Copy</title>
    <desc>Created with Sketch.</desc>
    <defs></defs>
    <g id="Popuestas" stroke="none" stroke-width="1" fill="none" fill-rule="evenodd">
        <g id="Mobile-Copy-2" transform="translate(-75.000000, -11.000000)" fill="#FFFFFF">
            <path d="M93.5681195,18.7431098 C93.3511858,18.7431098 93.1644416,18.5803783 93.1398586,18.3603893 C92.752138,14.9146134 90.0700087,12.2407361 86.6176135,11.8580156 C86.3808409,11.8321852 86.210054,11.6190843 86.2363621,11.3827361 C86.2626702,11.1463879 86.4796039,10.9767683 86.7124951,11.0025987 C90.5685682,11.4300919 93.5638067,14.4160866 93.997243,18.2648168 C94.0239823,18.501165 93.8531955,18.7138354 93.6164229,18.7405268 C93.6000342,18.7422488 93.5840769,18.7431098 93.5681195,18.7431098 M90.0945916,18.7521505 C89.8927527,18.7521505 89.7120464,18.6092222 89.6719374,18.4038705 C89.3657287,16.835965 88.1529697,15.6258105 86.5826798,15.3197203 C86.3489261,15.274517 86.1962531,15.0480705 86.2419687,14.8147359 C86.2872531,14.5814012 86.5145376,14.4277103 86.74786,14.4746355 C88.6648989,14.8478849 90.1450514,16.325384 90.5185397,18.2389864 C90.5638241,18.4723211 90.4115823,18.6983371 90.1778286,18.7439708 C90.1497954,18.7495674 90.1221935,18.7521505 90.0945916,18.7521505 M79.7878658,12.7276392 L79.7753587,12.7276392 L77.1656844,12.7276392 C77.1268692,12.7276392 77.0876227,12.7297917 77.047945,12.7332358 C76.7029211,12.7642323 76.3889493,12.9286858 76.1651151,13.1960305 C75.9417121,13.4633752 75.8360486,13.801323 75.867532,14.1478809 C76.1435511,16.7403925 77.041907,19.2730636 78.4655618,21.466926 C79.7589701,23.4980567 81.5147103,25.2502192 83.5451759,26.5382953 C85.73694,27.9572455 88.2629461,28.8544216 90.8540754,29.135112 C90.8885778,29.1381255 90.9295494,29.1389865 90.970521,29.1389865 C91.31727,29.1381255 91.6446114,29.0012244 91.8900096,28.7541135 C92.1358391,28.5074331 92.2699672,28.179387 92.2686733,27.8311071 L92.2686733,25.2291243 L92.2686733,25.2183617 C92.2854932,24.5566728 91.8033224,23.9884039 91.1473457,23.896706 C90.2852173,23.7826217 89.4321458,23.5703819 88.615733,23.2655831 C88.1396001,23.0882143 87.5987751,23.2022986 87.2373626,23.5596192 L86.1367365,24.6582724 C85.9991582,24.7956041 85.7861059,24.8231565 85.6183381,24.7280145 C83.3787018,23.4562976 81.5207483,21.6021051 80.2467476,19.3660531 C80.1510035,19.1981555 80.1794679,18.9859156 80.3166149,18.8490145 L81.4198288,17.7477783 C81.7752034,17.3891661 81.8907864,16.8501717 81.7118052,16.3753228 C81.4064591,15.5569295 81.1938381,14.7058176 81.0799802,13.8439432 C80.9898428,13.2072237 80.4352169,12.7276392 79.7878658,12.7276392 M90.7673882,29.9918204 C88.0365242,29.6960622 85.3802716,28.752822 83.0793936,27.2628382 C80.9458522,25.9097555 79.0982494,24.0654646 77.7397178,21.9318732 C76.2449019,19.6286622 75.2999677,16.9646865 75.0092851,14.2322602 C74.9562377,13.6497846 75.1317686,13.0884038 75.5031005,12.6441209 C75.8740012,12.2002684 76.3958498,11.9273272 76.972471,11.8752358 C77.0380255,11.8696393 77.1022862,11.8666257 77.1656844,11.8666257 L79.7710459,11.8666257 C80.8457953,11.8674867 81.7833977,12.6561751 81.9343456,13.7277063 C82.0404405,14.5288794 82.2371041,15.3171372 82.5195924,16.073107 C82.8158816,16.8609344 82.6243934,17.7568189 82.0313836,18.3552233 L81.1619234,19.2226943 C82.2961894,21.1048698 83.8763988,22.6822465 85.7619543,23.8144792 L86.629258,22.9491607 C87.2308934,22.3550614 88.1288181,22.1639164 88.9180602,22.459244 C89.6736625,22.7407954 90.4629046,22.937537 91.26336,23.0434416 C92.3553606,23.1962715 93.1562473,24.1369287 93.131233,25.2342904 L93.131233,27.829385 C93.1333894,28.4058336 92.9104177,28.9504246 92.502427,29.360267 C92.0948676,29.7709704 91.5510237,29.998278 90.9718148,30 C90.9023788,30 90.8346678,29.9978475 90.7673882,29.9918204 Z" id="Fill-1-Copy"></path>
        </g>
    </g>
</svg>