<?xml version="1.0" encoding="UTF-8" standalone="no"?>
<svg width="45px" height="45px" viewBox="0 0 45 45" version="1.1" xmlns="http://www.w3.org/2000/svg" xmlns:xlink="http://www.w3.org/1999/xlink">
    <!-- Generator: Sketch 47 (45396) - http://www.bohemiancoding.com/sketch -->
    <title>Fill 1</title>
    <desc>Created with Sketch.</desc>
    <defs></defs>
    <g id="Finale" stroke="none" stroke-width="1" fill="none" fill-rule="evenodd">
        <g id="Extra-large:-Desktops---12-col-Copy-7" transform="translate(-575.000000, -502.000000)" fill="#235396">
            <path d="M618.977125,520.338944 C618.463335,520.338944 618.021046,519.953528 617.962823,519.432501 C617.044537,511.271453 610.692126,504.938585 602.5154,504.032142 C601.954623,503.970965 601.550128,503.466252 601.612437,502.90648 C601.674745,502.346708 602.188536,501.944978 602.74012,502.006155 C611.872925,503.018639 618.966911,510.090731 619.99347,519.206145 C620.0568,519.765917 619.652305,520.26961 619.091528,520.332827 C619.052713,520.336905 619.014919,520.338944 618.977125,520.338944 M610.750349,520.360356 C610.272309,520.360356 609.84432,520.021842 609.749325,519.535483 C609.024094,515.822022 606.15177,512.955867 602.432663,512.230916 C601.879036,512.123856 601.517442,511.587535 601.625715,511.034901 C601.732968,510.482266 602.271273,510.118261 602.823879,510.2294 C607.364234,511.113412 610.869858,514.612752 611.754436,519.144968 C611.861689,519.697603 611.501116,520.232904 610.947489,520.340984 C610.881094,520.354239 610.815722,520.360356 610.750349,520.360356 M586.339682,506.091777 L586.31006,506.091777 L580.129252,506.091777 C580.037322,506.091777 579.94437,506.096875 579.850396,506.105032 C579.033234,506.178445 578.289617,506.56794 577.759483,507.201125 C577.230371,507.83431 576.980115,508.634712 577.054681,509.455507 C577.708411,515.595666 579.836096,521.594098 583.20791,526.790088 C586.271245,531.600661 590.429577,535.750519 595.238574,538.801226 C600.429595,542.161897 606.412241,544.286788 612.549126,544.951581 C612.630842,544.958718 612.72788,544.960758 612.824918,544.960758 C613.646166,544.958718 614.421448,544.634479 615.002654,544.049216 C615.584882,543.464973 615.902554,542.688022 615.899489,541.863148 L615.899489,535.700558 L615.899489,535.675067 C615.939326,534.107909 614.797342,532.762009 613.243714,532.54483 C611.20183,532.27463 609.181398,531.771957 607.247789,531.050065 C606.120105,530.629981 604.839204,530.900181 603.983227,531.746467 L601.376481,534.34854 C601.050638,534.673799 600.54604,534.739055 600.148695,534.513719 C594.844294,531.501757 590.443877,527.110249 587.426507,521.814336 C587.199745,521.416684 587.267161,520.914011 587.591983,520.589771 L590.204858,517.98158 C591.046534,517.132236 591.320283,515.85567 590.896381,514.731028 C590.173193,512.792728 589.669617,510.776937 589.399953,508.735655 C589.18647,507.227635 587.872882,506.091777 586.339682,506.091777 M612.827982,547 C612.663529,547 612.503161,546.994902 612.343814,546.980627 C605.875978,546.280147 599.584854,544.046157 594.135406,540.517248 C589.082282,537.312579 584.70638,532.944521 581.488805,527.891279 C577.948452,522.436305 575.71045,516.126889 575.021991,509.655353 C574.896352,508.275806 575.312084,506.94622 576.191554,505.893971 C577.070003,504.842741 578.30596,504.196301 579.671642,504.072927 C579.826903,504.059672 579.979099,504.052535 580.129252,504.052535 L586.299846,504.052535 C588.845305,504.054574 591.065942,505.92252 591.42345,508.460357 C591.674727,510.357872 592.14051,512.224799 592.809561,514.015254 C593.511299,515.88116 593.057774,518.002992 591.653277,519.420266 L589.594029,521.474802 C592.280449,525.932586 596.02305,529.668478 600.488839,532.350082 L602.54298,530.300644 C603.967906,528.893566 606.094569,528.440855 607.963827,529.140315 C609.753411,529.807147 611.622669,530.273114 613.518484,530.523941 C616.104801,530.885906 618.001638,533.113779 617.942394,535.712793 L617.942394,541.85907 C617.947501,543.224343 617.41941,544.514163 616.453117,545.484843 C615.487844,546.457562 614.199793,546.995922 612.827982,547" id="Fill-1"></path>
        </g>
    </g>
</svg>