<?xml version="1.0" encoding="UTF-8" standalone="no"?>
<svg width="46px" height="46px" viewBox="0 0 46 46" version="1.1" xmlns="http://www.w3.org/2000/svg" xmlns:xlink="http://www.w3.org/1999/xlink">
    <!-- Generator: Sketch 47 (45396) - http://www.bohemiancoding.com/sketch -->
    <title>Group 9</title>
    <desc>Created with Sketch.</desc>
    <defs></defs>
    <g id="Popuestas" stroke="none" stroke-width="1" fill="none" fill-rule="evenodd">
        <g id="Extra-large:-Desktops---12-col-Copy-5" transform="translate(-205.000000, -2219.000000)">
            <g id="Group-9" transform="translate(205.000000, 2219.000000)">
                <rect id="Rectangle-8-Copy-24" fill="#459DE1" x="0" y="0" width="46" height="46" rx="5"></rect>
                <g id="Page-1" transform="translate(13.000000, 9.000000)" fill="#FEFEFE">
                    <g id="Group-3" transform="translate(0.000000, 0.254043)">
                        <path d="M16.4737364,6.99962162 C17.1476455,6.99962162 17.8219364,7.00681081 18.4958455,6.9947027 C18.6627,6.99167568 18.9166091,7.10367568 18.9826636,6.92281081 C19.0475727,6.74308108 18.8219182,6.59967568 18.6882818,6.46648649 C17.2778455,5.06383784 15.8658818,3.66308108 14.4535364,2.26232432 C14.3687727,2.17832432 14.2821,2.09356757 14.1847364,2.02508108 C14.1102818,1.97210811 14.0239909,1.88697297 13.9270091,1.93351351 C13.8193364,1.98535135 13.8750818,2.10416216 13.8750818,2.19118919 C13.8716455,3.69410811 13.8792818,5.19702703 13.8659182,6.69994595 C13.8636273,6.96783784 13.9629,7.0087027 14.1988636,7.00454054 C14.9567727,6.9912973 15.7154455,6.99962162 16.4737364,6.99962162 M1.73440909,13.8690811 C1.73440909,17.556 1.73402727,21.2429189 1.73479091,24.9294595 C1.73517273,25.5681622 2.06811818,25.9007568 2.71186364,25.9007568 C7.84082727,25.9022703 12.9697909,25.9022703 18.0983727,25.9007568 C18.7371545,25.9003784 19.0735364,25.5613514 19.0739182,24.9245405 C19.0746818,19.638973 19.0723909,14.3534054 19.0804091,9.06783784 C19.0807909,8.79162162 19.0158818,8.70837838 18.7260818,8.71064865 C17.0289,8.72540541 15.3313364,8.71972973 13.6337727,8.71745946 C12.6502091,8.71556757 12.1404818,8.21081081 12.1393364,7.23875676 C12.1370455,5.55648649 12.1317,3.87421622 12.1454455,2.19194595 C12.1473545,1.91005405 12.0713727,1.83702703 11.7876818,1.83816216 C8.80186364,1.84837838 5.81604545,1.84421622 2.83022727,1.84459459 C2.03260909,1.84459459 1.73440909,2.13594595 1.73440909,2.91616216 C1.73402727,6.56713514 1.73440909,10.2181081 1.73440909,13.8690811 M0.000572727273,13.835027 C0.000572727273,10.1727027 0.000190909091,6.51037838 0.000572727273,2.84805405 C0.000954545455,1.24183784 1.1193,0.12827027 2.74355455,0.127135135 C6.33073636,0.124486486 9.9183,0.129027027 13.5054818,0.124486486 C14.3179909,0.123351351 15.0048818,0.391243243 15.5795182,0.965243243 C17.0548636,2.43827027 18.5374636,3.90486486 20.0173909,5.37372973 C20.5557545,5.90837838 20.8077545,6.55843243 20.8077545,7.308 C20.8085182,13.1891351 20.8104273,19.0706486 20.8069909,24.9517838 C20.8058455,26.4951892 19.6787182,27.6163243 18.1186091,27.6178378 C12.9785727,27.6231351 7.83815455,27.6223784 2.69773636,27.6182162 C1.11357273,27.6167027 0.00286363636,26.505027 0.00171818182,24.9294595 C-0.00133636364,21.2311892 0.000572727273,17.5329189 0.000572727273,13.835027" id="Fill-1"></path>
                    </g>
                    <path d="M8.67070909,13.3997405 C8.67070909,14.1504432 8.67070909,14.1504432 7.97198182,14.4224973 C6.15032727,15.1315784 4.99914545,16.9742811 5.21372727,18.838173 C5.44052727,20.8049838 6.87196364,22.3230378 8.81121818,22.6529838 C10.9864364,23.0230378 13.0998,21.708173 13.7046,19.5866054 C13.7763818,19.3349838 13.8726,19.264227 14.1184909,19.2770919 C14.4903818,19.2960108 14.8653273,19.2975243 15.2372182,19.2763351 C15.4842545,19.2627135 15.5106,19.3489838 15.4659273,19.5604973 C15.1398545,21.1092 14.3525455,22.3680649 13.0547455,23.2924432 C9.42785455,25.8756324 4.37029091,23.8426054 3.56045455,19.4825514 C2.97169091,16.3155243 5.11407273,13.1969297 8.30645455,12.5654162 C8.57258182,12.5132 8.71576364,12.5491459 8.67490909,12.8635784 C8.652,13.0395243 8.67070909,13.2207676 8.67070909,13.3997405" id="Fill-4"></path>
                    <path d="M12.1389545,12.6959946 C12.1389545,13.7145892 12.1404818,14.6877784 12.1370455,15.6605892 C12.1366636,15.7990757 12.1901182,15.8471297 12.3271909,15.8467514 C13.3065545,15.8433459 14.2859182,15.8448595 15.3141545,15.8448595 C14.7074455,14.3143189 13.6815,13.2839946 12.1389545,12.6959946 M13.8693545,17.5638324 C12.8231727,17.5638324 11.7762273,17.5574 10.7300455,17.5687514 C10.4937,17.5714 10.3967182,17.5301568 10.3982455,17.2637784 C10.4097,15.1656703 10.4074091,13.0679405 10.4001545,10.9698324 C10.3993909,10.7545351 10.4494091,10.6902108 10.6796455,10.6939946 C13.7819182,10.7469676 16.6929,13.2329135 17.1957545,16.2750757 C17.2499727,16.6035081 17.2721182,16.9372378 17.3255727,17.2656703 C17.3641364,17.5014 17.2873909,17.5717784 17.0449364,17.5687514 C15.9865364,17.5570216 14.9277545,17.5638324 13.8693545,17.5638324" id="Fill-6"></path>
                </g>
            </g>
        </g>
    </g>
</svg>