<?xml version="1.0" encoding="UTF-8" standalone="no"?>
<svg width="64px" height="56px" viewBox="0 0 64 56" version="1.1" xmlns="http://www.w3.org/2000/svg" xmlns:xlink="http://www.w3.org/1999/xlink">
    <!-- Generator: Sketch 47 (45396) - http://www.bohemiancoding.com/sketch -->
    <title>Page 1</title>
    <desc>Created with Sketch.</desc>
    <defs>
        <polygon id="path-1" points="0 6.15011706e-05 0 55.592118 63.275598 55.592118 63.275598 6.15011706e-05"></polygon>
    </defs>
    <g id="Finale" stroke="none" stroke-width="1" fill="none" fill-rule="evenodd">
        <g id="Extra-large:-Desktops---12-col-Copy-5" transform="translate(-569.000000, -1783.000000)">
            <g id="Page-1" transform="translate(569.000000, 1783.000000)">
                <mask id="mask-2" fill="white">
                    <use xlink:href="#path-1"></use>
                </mask>
                <g id="Clip-2"></g>
                <path d="M31.6286171,15.8840787 L43.1166171,15.8840787 C43.3186743,15.8840787 43.5106743,15.9400787 43.50976,15.5921443 C43.4951314,12.366177 43.5115886,9.14112787 43.4942171,5.91699672 C43.4878171,4.80984918 42.6000457,3.97260328 41.5029029,3.97260328 C34.92736,3.97076721 28.3527314,3.97076721 21.7781029,3.97260328 C20.62976,3.97260328 19.7749029,4.83188197 19.7749029,5.98034098 C19.7730743,9.1365377 19.7822171,12.2927344 19.7639314,15.4480131 C19.7621029,15.8289967 19.87456,15.893259 20.2219886,15.892341 C24.0245029,15.8794885 27.8261029,15.8840787 31.6286171,15.8840787 M31.6231314,51.621259 L54.52416,51.621259 C56.0071314,51.621259 57.4891886,51.619423 58.97216,51.6230951 C59.1806171,51.6240131 59.3269029,51.6322754 59.3259886,51.3329967 C59.3159314,47.5552918 59.31776,43.7785049 59.32416,40.001718 C59.3250743,39.7584393 59.2427886,39.7042754 59.01696,39.7051934 C55.2693029,39.7107016 51.5207314,39.7116197 47.7730743,39.7033574 C47.5170743,39.7024393 47.44576,39.7749639 47.4503314,40.028341 C47.4658743,40.8830295 47.4622171,41.737718 47.4539886,42.5924066 C47.4475886,43.2708328 47.0498743,43.668341 46.3733029,43.6775213 C45.7973029,43.6867016 45.2203886,43.6830295 44.6443886,43.6784393 C43.8882743,43.6738492 43.5061029,43.2901115 43.5024457,42.5308984 C43.4987886,41.7037508 43.4914743,40.8766033 43.5079314,40.0503738 C43.5134171,39.7813902 43.4375314,39.6987672 43.1650743,39.7024393 C42.0670171,39.7180459 40.96896,39.7088656 39.8699886,39.7088656 C33.3072457,39.7088656 26.7445029,39.7107016 20.18176,39.7024393 C19.8736457,39.7024393 19.7538743,39.7602754 19.76576,40.1027016 C19.7922743,40.9151607 19.7776457,41.7285377 19.7730743,42.5428328 C19.7694171,43.275423 19.3808457,43.6710951 18.6594743,43.6784393 C18.0834743,43.6839475 17.50656,43.6839475 16.9296457,43.6784393 C16.20736,43.6710951 15.8242743,43.277259 15.8206171,42.5400787 C15.81696,41.7404721 15.8032457,40.9408656 15.8270171,40.141259 C15.8370743,39.8116852 15.7694171,39.6987672 15.4101029,39.6996852 C11.7301029,39.7143738 8.05010286,39.7143738 4.37101714,39.7006033 C4.02084571,39.6987672 3.94678857,39.7997508 3.94861714,40.1357508 C3.96050286,43.8032918 3.96324571,47.4699148 3.94587429,51.1374557 C3.94404571,51.5368 4.04096,51.6313574 4.43867429,51.6304393 C13.4992457,51.6185049 22.5616457,51.621259 31.6231314,51.621259 M31.68256,19.8554885 C24.4341029,19.8554885 17.1856457,19.8554885 9.93627429,19.8527344 C9.69764571,19.8527344 9.50016,19.8784393 9.31090286,20.0712262 C7.60301714,21.8063082 5.88324571,23.5303738 4.16164571,25.2526033 C4.01536,25.4004066 3.95136,25.5491279 3.95227429,25.7593574 C3.95776,28.9715541 3.95867429,32.1837508 3.95044571,35.3950295 C3.95044571,35.660341 4.01627429,35.7448 4.29056,35.743882 C8.02450286,35.7356197 11.75936,35.7347016 15.4933029,35.7448 C15.7813029,35.745718 15.8288457,35.6401443 15.8242743,35.3867672 C15.8114743,34.5880787 15.8187886,33.7875541 15.8197029,32.9879475 C15.8206171,32.1396852 16.18176,31.7706361 17.0128457,31.767882 C17.5074743,31.7660459 18.0011886,31.7669639 18.4958171,31.767882 C19.4219886,31.767882 19.7730743,32.1148984 19.7739886,33.0310951 C19.7749029,33.8169311 19.7831314,34.6027672 19.7694171,35.3886033 C19.7648457,35.6438164 19.81696,35.7448 20.1022171,35.7448 C27.7904457,35.7365377 35.4786743,35.7365377 43.1669029,35.743882 C43.4402743,35.743882 43.5125029,35.662177 43.5079314,35.3950295 C43.4914743,34.5550295 43.4978743,33.7141115 43.5024457,32.8731934 C43.5070171,32.1718164 43.9019886,31.7770623 44.60416,31.7688 C45.18016,31.7623738 45.7570743,31.7632918 46.3339886,31.767882 C47.0581029,31.7752262 47.4485029,32.1663082 47.4549029,32.8988984 C47.4613029,33.7122754 47.4731886,34.5256525 47.4485029,35.3381115 C47.4384457,35.6695213 47.5381029,35.745718 47.8581029,35.745718 C51.5371886,35.7337836 55.2171886,35.7337836 58.8962743,35.745718 C59.2327314,35.7475541 59.3296457,35.6695213 59.3287314,35.3197508 C59.3141029,32.1626361 59.3168457,29.0055213 59.32416,25.8493246 C59.3250743,25.581259 59.2528457,25.3893902 59.0608457,25.1984393 C57.3858743,23.5276197 55.7163886,21.8512918 54.0560457,20.1639475 C53.8375314,19.9408656 53.6199314,19.8472262 53.3054171,19.8481443 C46.0981029,19.8573246 38.8898743,19.8554885 31.68256,19.8554885 M31.63776,55.5917508 C22.46656,55.5917508 13.2944457,55.5926689 4.12233143,55.5908328 C2.15113143,55.5908328 0.606902857,54.4295213 0.129645714,52.5962098 C0.0363885714,52.236341 -0.000182857143,51.8672918 -0.000182857143,51.4927344 C0.00256,42.8347672 0.000731428571,34.1768 0.00256,25.5188328 C0.00256,24.4373902 0.362788571,23.4936525 1.12530286,22.7215869 C2.98130286,20.8414557 4.83821714,18.9631607 6.70244571,17.0922098 C7.51890286,16.2733246 8.51913143,15.8840787 9.67021714,15.8840787 C11.5792457,15.8840787 13.4882743,15.8748984 15.3963886,15.892341 C15.7355886,15.8960131 15.82976,15.8133902 15.8279314,15.4645377 C15.8133029,12.3771934 15.8635886,9.28801311 15.8069029,6.20066885 C15.7520457,3.2143082 17.8101029,0.451029508 21.1637029,0.0241442623 C21.3941029,-0.00523278689 21.6299886,0.00211147541 21.8631314,0.00211147541 C28.3856457,0.00119344262 34.9072457,-0.00247868852 41.4288457,0.0030295082 C44.3472457,0.00486557377 46.7243886,1.94099672 47.3214171,4.79148852 C47.42016,5.26427541 47.4576457,5.74532459 47.4576457,6.22912787 C47.4549029,9.28984918 47.4622171,12.3505705 47.4485029,15.4112918 C47.4466743,15.7693246 47.5134171,15.9006033 47.9083886,15.8950951 C49.7616457,15.8712262 51.6158171,15.8960131 53.4690743,15.8804066 C54.7326171,15.8684721 55.7968457,16.2999475 56.6846171,17.1996197 C58.47296,19.0099803 60.2631314,20.819423 62.0615314,22.6215213 C62.8843886,23.4459148 63.27296,24.4401443 63.27296,25.5941115 C63.2757029,34.2392262 63.2775314,42.883423 63.2720457,51.5276197 C63.2702171,53.8741115 61.5239314,55.5899148 59.1541029,55.5908328 C49.9819886,55.5935869 40.8098743,55.5917508 31.63776,55.5917508" id="Fill-1" fill="#949EAD" mask="url(#mask-2)"></path>
            </g>
        </g>
    </g>
</svg>