<?xml version="1.0" encoding="UTF-8" standalone="no"?>
<svg width="53px" height="53px" viewBox="0 0 53 53" version="1.1" xmlns="http://www.w3.org/2000/svg" xmlns:xlink="http://www.w3.org/1999/xlink">
    <!-- Generator: Sketch 47 (45396) - http://www.bohemiancoding.com/sketch -->
    <title>Group 3</title>
    <desc>Created with Sketch.</desc>
    <defs>
        <circle id="path-1" cx="23.5" cy="23.5" r="23.5"></circle>
        <filter x="-9.6%" y="-9.6%" width="119.1%" height="119.1%" filterUnits="objectBoundingBox" id="filter-2">
            <feOffset dx="0" dy="0" in="SourceAlpha" result="shadowOffsetOuter1"></feOffset>
            <feGaussianBlur stdDeviation="1.5" in="shadowOffsetOuter1" result="shadowBlurOuter1"></feGaussianBlur>
            <feColorMatrix values="0 0 0 0 0   0 0 0 0 0   0 0 0 0 0  0 0 0 0.2421875 0" type="matrix" in="shadowBlurOuter1"></feColorMatrix>
        </filter>
    </defs>
    <g id="Consejo_@2x" stroke="none" stroke-width="1" fill="none" fill-rule="evenodd">
        <g id="eventos-cursos-b@2x" transform="translate(-396.000000, -608.000000)">
            <g id="Group-2" transform="translate(165.000000, 454.000000)">
                <g id="Group-3" transform="translate(234.000000, 157.000000)">
                    <g id="Oval-2">
                        <use fill="black" fill-opacity="1" filter="url(#filter-2)" xlink:href="#path-1"></use>
                        <use fill="#FFFFFF" fill-rule="evenodd" xlink:href="#path-1"></use>
                    </g>
                    <g id="baseline-share-24px" opacity="0.449999988" transform="translate(9.000000, 12.000000)">
                        <polygon id="Shape" points="0 0 24 0 24 24 0 24"></polygon>
                        <path d="M18,16.08 C17.24,16.08 16.56,16.38 16.04,16.85 L8.91,12.7 C8.96,12.47 9,12.24 9,12 C9,11.76 8.96,11.53 8.91,11.3 L15.96,7.19 C16.5,7.69 17.21,8 18,8 C19.66,8 21,6.66 21,5 C21,3.34 19.66,2 18,2 C16.34,2 15,3.34 15,5 C15,5.24 15.04,5.47 15.09,5.7 L8.04,9.81 C7.5,9.31 6.79,9 6,9 C4.34,9 3,10.34 3,12 C3,13.66 4.34,15 6,15 C6.79,15 7.5,14.69 8.04,14.19 L15.16,18.35 C15.11,18.56 15.08,18.78 15.08,19 C15.08,20.61 16.39,21.92 18,21.92 C19.61,21.92 20.92,20.61 20.92,19 C20.92,17.39 19.61,16.08 18,16.08 Z" id="Shape" fill="#000000" fill-rule="nonzero"></path>
                    </g>
                </g>
            </g>
        </g>
    </g>
</svg>