<?xml version="1.0" encoding="UTF-8" standalone="no"?>
<svg width="77px" height="61px" viewBox="0 0 77 61" version="1.1" xmlns="http://www.w3.org/2000/svg" xmlns:xlink="http://www.w3.org/1999/xlink">
    <!-- Generator: Sketch 47 (45396) - http://www.bohemiancoding.com/sketch -->
    <title>Page 1</title>
    <desc>Created with Sketch.</desc>
    <defs>
        <polygon id="path-1" points="0.115817795 0.162 41.931247 0.162 41.931247 60.9995589 0.115817795 60.9995589"></polygon>
    </defs>
    <g id="Popuestas" stroke="none" stroke-width="1" fill="none" fill-rule="evenodd">
        <g id="Extra-large:-Desktops---12-col-Copy-5" transform="translate(-483.000000, -2979.000000)">
            <g id="Page-1" transform="translate(483.000000, 2978.000000)">
                <g id="Group-3" transform="translate(17.000000, 0.838400)">
                    <mask id="mask-2" fill="white">
                        <use xlink:href="#path-1"></use>
                    </mask>
                    <g id="Clip-2"></g>
                    <path d="M21.0576,53.3945 C19.2636,53.3945 17.4696,53.3925 15.6756,53.3995 C15.5546,53.3995 15.3406,53.3015 15.3276,53.5265 C15.3106,53.7935 15.2576,54.0705 15.4326,54.3295 C16.0316,55.2115 16.6216,56.1025 17.2066,56.9945 C17.3046,57.1435 17.4126,57.2005 17.5926,57.1995 C19.8746,57.1935 22.1566,57.1935 24.4376,57.2015 C24.6406,57.2015 24.7446,57.1185 24.8456,56.9615 C25.1366,56.5075 25.4406,56.0605 25.7406,55.6115 C26.0326,55.1725 26.3246,54.7335 26.6196,54.2965 C26.7906,54.0415 26.7626,53.7425 26.6896,53.4955 C26.6256,53.2775 26.3426,53.4015 26.1626,53.4005 C24.4606,53.3905 22.7596,53.3945 21.0576,53.3945 M21.0206,49.5925 C22.8016,49.5925 24.5826,49.5875 26.3626,49.5985 C26.6216,49.5995 26.7316,49.5565 26.7266,49.2605 C26.7086,48.2055 26.7126,47.1505 26.7256,46.0955 C26.7286,45.8495 26.6556,45.7865 26.4136,45.7865 C22.8126,45.7935 19.2126,45.7935 15.6116,45.7865 C15.3596,45.7855 15.3036,45.8665 15.3066,46.1025 C15.3186,47.1445 15.3256,48.1865 15.3076,49.2275 C15.3036,49.5235 15.3826,49.6025 15.6796,49.6005 C17.4596,49.5855 19.2406,49.5925 21.0206,49.5925 M21.0166,41.9895 C23.1546,41.9895 25.2926,41.9815 27.4306,41.9985 C27.7656,42.0005 27.9326,41.9125 28.0756,41.5935 C29.5716,38.2685 31.4746,35.1915 33.8316,32.4085 C37.3046,28.3065 38.7566,23.6095 37.8736,18.2995 C36.9486,12.7375 33.8916,8.6085 28.9496,5.9405 C25.4296,4.0405 21.6466,3.5415 17.7146,4.2855 C13.7436,5.0365 10.4296,6.9565 7.8726,10.0825 C4.5986,14.0865 3.3706,18.6845 4.1466,23.8005 C4.6016,26.7995 5.7816,29.5015 7.7296,31.8205 C10.2656,34.8395 12.3976,38.1015 14.0116,41.6985 C14.1156,41.9305 14.2406,41.9965 14.4836,41.9955 C16.6616,41.9855 18.8396,41.9895 21.0166,41.9895 M21.0196,60.9975 C19.5286,60.9975 18.0366,60.9925 16.5456,60.9995 C15.7296,61.0045 15.1056,60.6915 14.6516,59.9965 C13.7806,58.6605 12.8956,57.3325 11.9966,56.0145 C11.6546,55.5135 11.5086,54.9845 11.5116,54.3815 C11.5236,51.8615 11.4836,49.3395 11.5286,46.8205 C11.5476,45.7995 11.3276,44.8655 10.9256,43.9515 C9.4036,40.4875 7.4066,37.3275 4.9646,34.4345 C2.3566,31.3445 0.7826,27.7665 0.2906,23.7565 C-0.4014,18.1105 0.9616,12.9635 4.3766,8.4165 C7.5646,4.1705 11.8076,1.5465 17.0386,0.5585 C21.9046,-0.3605 26.5556,0.3065 30.9016,2.6675 C36.0606,5.4705 39.4676,9.7435 41.1286,15.3845 C41.7586,17.5255 42.0166,19.7235 41.9066,21.9505 C41.6596,26.9035 39.8936,31.2475 36.6236,34.9885 C34.8096,37.0645 33.3796,39.4045 32.1026,41.8395 C31.5756,42.8435 31.0996,43.8705 30.7346,44.9465 C30.5896,45.3745 30.5156,45.8065 30.5166,46.2625 C30.5246,48.9945 30.5136,51.7265 30.5206,54.4575 C30.5216,55.0195 30.3746,55.5115 30.0576,55.9775 C29.1476,57.3195 28.2486,58.6695 27.3616,60.0275 C26.9246,60.6975 26.3186,61.0005 25.5336,60.9985 C24.0286,60.9945 22.5246,60.9975 21.0196,60.9975" id="Fill-1" fill="#949EAD" mask="url(#mask-2)"></path>
                </g>
                <path d="M69.6318,44.1001 C69.4108,44.1311 69.2238,44.0281 69.0408,43.9221 C65.2428,41.7291 61.4458,39.5341 57.6458,37.3441 C57.4348,37.2231 57.3598,37.1281 57.5408,36.9041 C58.2128,36.0731 58.8118,35.1891 59.3458,34.2641 C59.4748,34.0391 59.5708,34.0591 59.7688,34.1741 C63.5058,36.3431 67.2468,38.5031 70.9858,40.6681 C71.5408,40.9901 71.6848,41.4851 71.3818,42.0421 C71.0978,42.5621 70.7978,43.0741 70.4988,43.5851 C70.3068,43.9131 70.0438,44.1321 69.6318,44.1001" id="Fill-4" fill="#949EAD"></path>
                <path d="M6.4429,44.1123 C6.0089,44.1173 5.7359,43.9383 5.5509,43.6153 C5.2809,43.1473 5.0139,42.6773 4.7449,42.2093 C4.3249,41.4793 4.4409,41.0223 5.1619,40.6043 C6.5869,39.7783 8.0139,38.9553 9.4399,38.1303 C11.6879,36.8313 13.9379,35.5363 16.1799,34.2273 C16.4359,34.0773 16.5599,34.0833 16.7129,34.3573 C17.2219,35.2673 17.8279,36.1163 18.4719,36.9353 C18.6349,37.1433 18.5949,37.2263 18.3869,37.3453 C14.5849,39.5363 10.7849,41.7323 6.9849,43.9263 C6.7999,44.0333 6.6119,44.1273 6.4429,44.1123" id="Fill-6" fill="#949EAD"></path>
                <path d="M7.1538,25.7212 C5.1618,25.7212 3.1698,25.7222 1.1778,25.7212 C0.3498,25.7212 0.0038,25.3722 0.0028,24.5402 C0.0018,24.0122 -0.0032,23.4852 0.0038,22.9572 C0.0118,22.3262 0.3858,21.9242 1.0048,21.9232 C5.0158,21.9172 9.0268,21.9212 13.0368,21.9152 C13.2518,21.9152 13.3398,21.9692 13.3448,22.1952 C13.3738,23.3152 13.4108,24.4352 13.5778,25.5452 C13.6158,25.7932 13.4358,25.7172 13.3278,25.7182 C12.7208,25.7252 12.1138,25.7212 11.5078,25.7212 L7.1538,25.7212 Z" id="Fill-8" fill="#949EAD"></path>
                <path d="M68.8657,25.7212 C66.8337,25.7212 64.8017,25.7162 62.7687,25.7272 C62.4767,25.7292 62.3697,25.6752 62.4257,25.3572 C62.6047,24.3302 62.7157,23.2952 62.7197,22.2512 C62.7207,22.0052 62.7747,21.9132 63.0457,21.9132 C67.0177,21.9222 70.9907,21.9182 74.9627,21.9212 C75.6417,21.9222 76.0237,22.3012 76.0317,22.9692 C76.0377,23.5362 76.0377,24.1042 76.0317,24.6722 C76.0247,25.3402 75.6417,25.7182 74.9627,25.7202 C72.9307,25.7242 70.8977,25.7212 68.8657,25.7212" id="Fill-10" fill="#949EAD"></path>
                <path d="M69.5732,3.5298 C70.0202,3.5228 70.2962,3.6978 70.4822,4.0198 C70.7792,4.5328 71.0752,5.0468 71.3642,5.5638 C71.6862,6.1438 71.5592,6.6348 70.9822,6.9728 C69.8462,7.6388 68.7022,8.2918 67.5612,8.9498 C65.4742,10.1558 63.3842,11.3558 61.3042,12.5748 C61.0022,12.7528 60.9052,12.6978 60.7842,12.3908 C60.4172,11.4588 59.9622,10.5658 59.4492,9.7058 C59.3082,9.4698 59.2882,9.3448 59.5652,9.1858 C62.7292,7.3708 65.8862,5.5408 69.0462,3.7168 C69.2282,3.6108 69.4152,3.5058 69.5732,3.5298" id="Fill-12" fill="#949EAD"></path>
                <path d="M6.4048,3.5381 C6.6018,3.5081 6.7898,3.6031 6.9738,3.7091 C10.1438,5.5411 13.3128,7.3761 16.4868,9.2031 C16.7118,9.3321 16.7388,9.4321 16.6048,9.6571 C16.0628,10.5611 15.5908,11.5031 15.2088,12.4861 C15.1168,12.7211 15.0328,12.7461 14.8158,12.6191 C11.5458,10.7231 8.2698,8.8371 4.9988,6.9431 C4.5068,6.6571 4.3598,6.1541 4.6268,5.6521 C4.9228,5.0941 5.2408,4.5461 5.5658,4.0041 C5.7698,3.6621 6.0088,3.5411 6.4048,3.5381" id="Fill-14" fill="#949EAD"></path>
                <path d="M24.7144,21.6006 C24.8264,15.7376 28.9884,10.4786 34.6724,9.0426 C35.7464,8.7706 36.8414,8.6146 37.9554,8.6136 C39.0404,8.6116 39.9174,9.4566 39.9184,10.5166 C39.9184,11.5586 39.0634,12.4016 37.9914,12.4156 C33.4354,12.4766 29.6754,15.5386 28.7074,19.9906 C28.5814,20.5696 28.5154,21.1596 28.5124,21.7556 C28.5084,22.9606 27.6974,23.8286 26.5954,23.8206 C25.4994,23.8136 24.6974,22.9166 24.7144,21.7196 C24.7144,21.6806 24.7144,21.6406 24.7144,21.6006" id="Fill-16" fill="#949EAD"></path>
            </g>
        </g>
    </g>
</svg>