<?xml version="1.0" encoding="UTF-8" standalone="no"?>
<svg width="46px" height="46px" viewBox="0 0 46 46" version="1.1" xmlns="http://www.w3.org/2000/svg" xmlns:xlink="http://www.w3.org/1999/xlink">
    <!-- Generator: Sketch 47 (45396) - http://www.bohemiancoding.com/sketch -->
    <title>Group 10</title>
    <desc>Created with Sketch.</desc>
    <defs>
        <polygon id="path-1" points="8.65956291e-16 25.7684546 8.65956291e-16 7.32394366e-05 29.785741 7.32394366e-05 29.785741 25.7684546"></polygon>
    </defs>
    <g id="Popuestas" stroke="none" stroke-width="1" fill="none" fill-rule="evenodd">
        <g id="Extra-large:-Desktops---12-col-Copy-5" transform="translate(-205.000000, -2149.000000)">
            <g id="Group-10" transform="translate(205.000000, 2149.000000)">
                <rect id="Rectangle-8-Copy-23" fill="#459DE1" x="0" y="0" width="46" height="46" rx="5"></rect>
                <g id="Page-1" transform="translate(8.000000, 10.000000)">
                    <mask id="mask-2" fill="white">
                        <use xlink:href="#path-1"></use>
                    </mask>
                    <g id="Clip-2"></g>
                    <path d="M24.1890741,18.4060592 C23.0653704,18.4060592 21.9412963,18.4141155 20.8175926,18.3998338 C20.5501852,18.396538 20.4683333,18.4628197 20.4705556,18.736369 C20.4838889,20.3582563 20.4809259,21.9805099 20.4724074,23.6023972 C20.4712963,23.8367634 20.5131481,23.9352704 20.7842593,23.9338056 C22.837963,23.9220873 24.8916667,23.9308761 26.9453704,23.9250169 C27.5368519,23.9235521 27.9183333,23.5456366 27.9209259,22.9677775 C27.9268519,21.549862 27.9161111,20.1323127 27.9290741,18.7147634 C27.9312963,18.4543972 27.8435185,18.398369 27.5990741,18.4009324 C26.4624074,18.4122845 25.3257407,18.4060592 24.1890741,18.4060592 M5.60055556,18.4060592 C4.47648148,18.4060592 3.35277778,18.4141155 2.22907407,18.3998338 C1.95611111,18.396538 1.85018519,18.4437775 1.85388889,18.7488197 C1.87240741,20.140369 1.85944444,21.5326507 1.86314815,22.9249324 C1.865,23.5540592 2.23611111,23.9246507 2.87351852,23.9261155 C4.91425926,23.9301437 6.95537037,23.9224535 8.99611111,23.9334394 C9.25981481,23.9349042 9.31425926,23.8477493 9.31277778,23.6067915 C9.30351852,21.9849042 9.30166667,20.3626507 9.31425926,18.7411296 C9.31611111,18.4738056 9.24611111,18.3958056 8.97203704,18.3994676 C7.84833333,18.4148479 6.72425926,18.4060592 5.60055556,18.4060592 M14.9331481,18.4060592 C13.7835185,18.4060592 12.6342593,18.4137493 11.485,18.4002 C11.2272222,18.3972704 11.1627778,18.4760028 11.1642593,18.7228197 C11.1742593,20.3571577 11.1735185,21.991862 11.165,23.6262 C11.1638889,23.8521437 11.2131481,23.9341718 11.462037,23.9330732 C13.7475926,23.9235521 16.0335185,23.9239183 18.3194444,23.932707 C18.5624074,23.9338056 18.6216667,23.8612986 18.6205556,23.629862 C18.6109259,21.9955239 18.607963,20.3608197 18.6224074,18.7264817 C18.625,18.4393831 18.5175926,18.398369 18.265,18.4009324 C17.1542593,18.4130169 16.0438889,18.4060592 14.9331481,18.4060592 M24.2131481,16.5655521 C25.3368519,16.5655521 26.4601852,16.5571296 27.5838889,16.5714113 C27.8531481,16.5750732 27.9316667,16.5054958 27.9294444,16.2337775 C27.9164815,14.6122563 27.9161111,12.990369 27.9298148,11.3688479 C27.932037,11.0879746 27.8357407,11.0374394 27.5768519,11.038538 C25.3298148,11.047693 23.0827778,11.0491577 20.8357407,11.0370732 C20.5487037,11.0356085 20.4672222,11.1044535 20.4698148,11.3948479 C20.485,13.0035521 20.4857407,14.6126225 20.4690741,16.2213268 C20.4661111,16.5230732 20.5664815,16.5750732 20.8424074,16.5714113 C21.9657407,16.5567634 23.0894444,16.5655521 24.2131481,16.5655521 M14.9335185,11.044031 C13.7838889,11.044031 12.6346296,11.047693 11.4853704,11.040369 C11.2727778,11.0389042 11.1612963,11.0612423 11.1635185,11.3219746 C11.1753704,12.9819465 11.1738889,14.6422845 11.1646296,16.3018901 C11.1635185,16.5358901 11.2587037,16.5692141 11.4616667,16.5688479 C13.7475926,16.5633549 16.0331481,16.5615239 18.3190741,16.5706789 C18.5616667,16.5717775 18.6216667,16.500369 18.6205556,16.2682 C18.6109259,14.6334958 18.6083333,12.9991577 18.6224074,11.3648197 C18.625,11.0780873 18.5183333,11.0359746 18.2653704,11.038538 C17.1546296,11.0509887 16.0438889,11.044031 14.9335185,11.044031 M5.62537037,11.044031 C4.47611111,11.044031 3.32648148,11.0517211 2.17722222,11.0381718 C1.91981481,11.0352423 1.855,11.1139746 1.85685185,11.3607915 C1.86685185,12.9951296 1.86611111,14.6294676 1.85759259,16.2641718 C1.85611111,16.4897493 1.90574074,16.5721437 2.15425926,16.5710451 C4.44018519,16.5615239 6.72611111,16.5615239 9.01166667,16.5706789 C9.255,16.5717775 9.31425926,16.4992704 9.31277778,16.2678338 C9.30351852,14.6331296 9.30055556,12.9987915 9.315,11.3644535 C9.31759259,11.0773549 9.21018519,11.0359746 8.95759259,11.038538 C7.84685185,11.0506225 6.73611111,11.044031 5.62537037,11.044031 M24.2012963,9.20315775 C25.3246296,9.20315775 26.4487037,9.1965662 27.572037,9.20828451 C27.8235185,9.21121408 27.9324074,9.17129859 27.9301852,8.88346761 C27.9157407,7.24912958 27.9187037,5.61442535 27.927963,3.98008732 C27.9294444,3.7493831 27.8712963,3.67541127 27.6275926,3.67614366 C25.3416667,3.68566479 23.0557407,3.68566479 20.7701852,3.67614366 C20.522037,3.67504507 20.4712963,3.75597465 20.4724074,3.9826507 C20.4809259,5.61698873 20.482037,7.25169296 20.4716667,8.88566479 C20.4701852,9.1317493 20.5331481,9.21231268 20.792037,9.2090169 C21.9283333,9.19546761 23.0646296,9.20315775 24.2012963,9.20315775 M14.882037,9.20315775 C16.0183333,9.20315775 17.155,9.19693239 18.2912963,9.20828451 C18.5353704,9.21084789 18.6235185,9.15518592 18.6216667,8.89481972 C18.6098148,7.26048169 18.6098148,5.62614366 18.6212963,3.99180563 C18.6231481,3.73400282 18.5394444,3.67577746 18.2931481,3.67687606 C16.0201852,3.68529859 13.7472222,3.6845662 11.4742593,3.67724225 C11.2457407,3.67650986 11.162037,3.72521408 11.1638889,3.97093239 C11.1746296,5.61808732 11.1746296,7.26524225 11.1638889,8.91239718 C11.1624074,9.15591831 11.2412963,9.21048169 11.4727778,9.20791831 C12.6087037,9.19766479 13.7453704,9.20315775 14.882037,9.20315775 M5.58574074,9.20315775 C6.70944444,9.20315775 7.83314815,9.19693239 8.95685185,9.20828451 C9.20796296,9.21121408 9.31759259,9.17166479 9.315,8.88346761 C9.30055556,7.24912958 9.30388889,5.61479155 9.31277778,3.98008732 C9.31425926,3.75011549 9.25722222,3.67541127 9.01277778,3.67614366 C6.72685185,3.68566479 4.44092593,3.68566479 2.155,3.67614366 C1.90759259,3.67504507 1.85611111,3.75524225 1.85722222,3.98228451 C1.86611111,5.61662254 1.86944444,7.25132676 1.855,8.88566479 C1.85240741,9.17679155 1.96685185,9.21084789 2.21537037,9.20828451 C3.3387037,9.19693239 4.46240741,9.20315775 5.58574074,9.20315775 M14.8627778,25.7680873 C10.9212963,25.7680873 6.97944444,25.7684535 3.03796296,25.7680873 C1.14981481,25.7673549 0.000555555556,24.6270169 0.000555555556,22.7546507 C0.000185185185,16.1356366 0.000925925926,9.51698873 -0.000185185185,2.89760845 C-0.000185185185,1.83380563 0.423518519,0.996678873 1.33574074,0.413692958 C1.84388889,0.0892422535 2.40907407,-0.000109859155 3.00018519,-0.000109859155 C9.1387037,0.000988732394 15.2772222,0.000622535211 21.4161111,0.000622535211 C23.1998148,0.000622535211 24.9831481,-0.000476056338 26.7664815,0.000988732394 C28.6287037,0.00245352113 29.7842593,1.1486507 29.7842593,2.9946507 C29.7846296,9.61366479 29.7831481,16.2326789 29.7857407,22.851693 C29.7861111,23.9319746 29.3609259,24.7786225 28.4327778,25.3652704 C27.9353704,25.6794676 27.382037,25.7688197 26.8042593,25.7684535 C22.8238889,25.7677211 18.8431481,25.7680873 14.8627778,25.7680873" id="Fill-1" fill="#FEFEFE" mask="url(#mask-2)"></path>
                </g>
            </g>
        </g>
    </g>
</svg>