<?xml version="1.0" encoding="UTF-8" standalone="no"?>
<svg width="23px" height="21px" viewBox="0 0 23 21" version="1.1" xmlns="http://www.w3.org/2000/svg" xmlns:xlink="http://www.w3.org/1999/xlink">
    <!-- Generator: Sketch 47 (45396) - http://www.bohemiancoding.com/sketch -->
    <title>Page 1 Copy 3</title>
    <desc>Created with Sketch.</desc>
    <defs></defs>
    <g id="Popuestas" stroke="none" stroke-width="1" fill="none" fill-rule="evenodd">
        <g id="Mobile-Copy-2" transform="translate(-284.000000, -11.000000)" fill="#FFFFFF">
            <g id="Page-1-Copy-3" transform="translate(284.000000, 11.000000)">
                <path d="M21.8205128,17.8497667 C21.8205128,18.71835 21.1063333,19.4247667 20.2282051,19.4247667 L16.4538462,19.4247667 L16.4538462,5.4831 L20.2282051,5.4831 C21.1063333,5.4831 21.8205128,6.1901 21.8205128,7.0581 L21.8205128,17.8497667 Z M1.17948718,17.8497667 L1.17948718,7.0581 C1.17948718,6.1901 1.89366667,5.4831 2.77179487,5.4831 L6.54615385,5.4831 L6.54615385,19.4247667 L2.77179487,19.4247667 C1.89366667,19.4247667 1.17948718,18.71835 1.17948718,17.8497667 L1.17948718,17.8497667 Z M7.72505128,19.4247667 L15.274359,19.4247667 L15.274359,5.4831 L7.72505128,5.4831 L7.72505128,19.4247667 Z M7.72564103,2.74201667 C7.72564103,1.87343333 8.43982051,1.16643333 9.31794872,1.16643333 L13.6820513,1.16643333 C14.5601795,1.16643333 15.274359,1.87343333 15.274359,2.74201667 L15.274359,4.31643333 L7.72564103,4.31643333 L7.72564103,2.74201667 Z M20.2282051,4.31643333 L16.4538462,4.31643333 L16.4538462,2.74201667 C16.4538462,1.23001667 15.2106667,-0.000233333333 13.6820513,-0.000233333333 L9.31794872,-0.000233333333 C7.78933333,-0.000233333333 6.54615385,1.23001667 6.54615385,2.74201667 L6.54615385,4.31643333 L2.77179487,4.31643333 C1.24317949,4.31643333 0,5.54668333 0,7.0581 L0,17.8497667 C0,19.3617667 1.24317949,20.5914333 2.77179487,20.5914333 L20.2282051,20.5914333 C21.7568205,20.5914333 23,19.3617667 23,17.8497667 L23,7.0581 C23,5.54668333 21.7568205,4.31643333 20.2282051,4.31643333 L20.2282051,4.31643333 Z" id="Fill-1"></path>
            </g>
        </g>
    </g>
</svg>