<?xml version="1.0" encoding="UTF-8" standalone="no"?>
<svg width="46px" height="42px" viewBox="0 0 46 42" version="1.1" xmlns="http://www.w3.org/2000/svg" xmlns:xlink="http://www.w3.org/1999/xlink">
    <!-- Generator: Sketch 47 (45396) - http://www.bohemiancoding.com/sketch -->
    <title>Page 1</title>
    <desc>Created with Sketch.</desc>
    <defs>
        <polygon id="path-1" points="46 20.5913167 46 -0.000233333333 0 -0.000233333333 0 20.5913167 0 41.1828667 46 41.1828667"></polygon>
    </defs>
    <g id="Finale" stroke="none" stroke-width="1" fill="none" fill-rule="evenodd">
        <g id="Extra-large:-Desktops---12-col-Copy-7" transform="translate(-959.000000, -500.000000)">
            <g id="Page-1" transform="translate(959.000000, 500.000000)">
                <mask id="mask-2" fill="white">
                    <use xlink:href="#path-1"></use>
                </mask>
                <g id="Clip-2"></g>
                <path d="M43.6410256,35.6995333 C43.6410256,37.4367 42.2126667,38.8495333 40.4564103,38.8495333 L32.9076923,38.8495333 L32.9076923,10.9662 L40.4564103,10.9662 C42.2126667,10.9662 43.6410256,12.3802 43.6410256,14.1162 L43.6410256,35.6995333 Z M2.35897436,35.6995333 L2.35897436,14.1162 C2.35897436,12.3802 3.78733333,10.9662 5.54358974,10.9662 L13.0923077,10.9662 L13.0923077,38.8495333 L5.54358974,38.8495333 C3.78733333,38.8495333 2.35897436,37.4367 2.35897436,35.6995333 L2.35897436,35.6995333 Z M15.4501026,38.8495333 L30.5487179,38.8495333 L30.5487179,10.9662 L15.4501026,10.9662 L15.4501026,38.8495333 Z M15.4512821,5.48403333 C15.4512821,3.74686667 16.879641,2.33286667 18.6358974,2.33286667 L27.3641026,2.33286667 C29.120359,2.33286667 30.5487179,3.74686667 30.5487179,5.48403333 L30.5487179,8.63286667 L15.4512821,8.63286667 L15.4512821,5.48403333 Z M40.4564103,8.63286667 L32.9076923,8.63286667 L32.9076923,5.48403333 C32.9076923,2.46003333 30.4213333,-0.000466666667 27.3641026,-0.000466666667 L18.6358974,-0.000466666667 C15.5786667,-0.000466666667 13.0923077,2.46003333 13.0923077,5.48403333 L13.0923077,8.63286667 L5.54358974,8.63286667 C2.48635897,8.63286667 0,11.0933667 0,14.1162 L0,35.6995333 C0,38.7235333 2.48635897,41.1828667 5.54358974,41.1828667 L40.4564103,41.1828667 C43.513641,41.1828667 46,38.7235333 46,35.6995333 L46,14.1162 C46,11.0933667 43.513641,8.63286667 40.4564103,8.63286667 L40.4564103,8.63286667 Z" id="Fill-1" fill="#235396" mask="url(#mask-2)"></path>
            </g>
        </g>
    </g>
</svg>