<?xml version="1.0" encoding="UTF-8" standalone="no"?>
<svg width="40px" height="46px" viewBox="0 0 40 46" version="1.1" xmlns="http://www.w3.org/2000/svg" xmlns:xlink="http://www.w3.org/1999/xlink">
    <!-- Generator: Sketch 47 (45396) - http://www.bohemiancoding.com/sketch -->
    <title>Page 1</title>
    <desc>Created with Sketch.</desc>
    <defs></defs>
    <g id="Popuestas" stroke="none" stroke-width="1" fill="none" fill-rule="evenodd">
        <g id="Extra-large:-Desktops---12-col-Copy-5" transform="translate(-461.000000, -2755.000000)" fill="#FFFFFF">
            <g id="Page-1" transform="translate(461.000000, 2755.000000)">
                <path d="M23.8644211,8.09352308 C23.8644211,9.09632308 23.8658246,10.0991231 23.8630175,11.1026308 C23.8630175,11.2406308 23.8581053,11.3425385 24.0538947,11.3411231 C25.3310877,11.3333385 26.6082807,11.3347538 27.8854737,11.3397077 C28.0454737,11.3404154 28.0833684,11.2838 28.0756491,11.1337692 C28.0581053,10.7707231 28.0244211,10.4083846 27.9521404,10.0531231 C27.4826667,7.751 26.210386,6.06315385 24.138807,4.98321538 C23.8861754,4.85087692 23.858807,4.93509231 23.8609123,5.17358462 C23.8700351,6.14666154 23.8644211,7.12044615 23.8644211,8.09352308 M15.4398596,8.08998462 C15.4398596,7.0978 15.4363509,6.10561538 15.4426667,5.11413846 C15.4433684,4.9266 15.4096842,4.85087692 15.2202105,4.96127692 C15.0181053,5.07875385 14.8026667,5.17429231 14.6068772,5.30026154 C12.5023158,6.64770769 11.3745965,8.57687692 11.2265263,11.0877692 C11.216,11.2724769 11.258807,11.3432462 11.4609123,11.3418308 C12.7072281,11.3326308 13.9535439,11.3333385 15.1998596,11.3411231 C15.3914386,11.3425385 15.4454737,11.2873385 15.4440702,11.0948462 C15.4349474,10.0934615 15.4398596,9.09136923 15.4398596,8.08998462 M21.056,7.0978 C21.056,5.76167692 21.053193,4.42555385 21.0595088,3.08943077 C21.0609123,2.90613846 21.0244211,2.83324615 20.8230175,2.83607692 C20.0433684,2.84810769 19.2637193,2.8474 18.4847719,2.83678462 C18.2875789,2.83395385 18.2440702,2.89906154 18.2440702,3.0866 C18.2496842,5.75884615 18.250386,8.43109231 18.2433684,11.1033385 C18.2426667,11.3092769 18.3177544,11.3425385 18.4967018,11.3404154 C19.2658246,11.3319231 20.0356491,11.3290923 20.8054737,11.3418308 C21.0152982,11.3453692 21.0623158,11.2788462 21.0609123,11.0771538 C21.0517895,9.75093846 21.056,8.42401538 21.056,7.0978 M19.6819649,14.1690615 C17.1374035,14.1690615 14.5928421,14.1733077 12.0482807,14.1619846 C11.8054737,14.1612769 11.7114386,14.2419538 11.6405614,14.4620462 C11.1879298,15.8760154 11.1135439,17.3048462 11.4026667,18.7634 C12.1352982,22.4625077 15.4847719,25.3598 19.2082807,25.4893077 C21.4524912,25.5678615 23.4391579,24.8962615 25.1612632,23.4186 C27.693193,21.2452769 28.7107368,17.6318 27.6630175,14.4620462 C27.5914386,14.2440769 27.4995088,14.1612769 27.256,14.1619846 C24.7310877,14.1733077 22.2068772,14.1690615 19.6819649,14.1690615 M19.8952982,0.0159230769 C20.253193,0.0336153846 20.8707368,-0.0498923077 21.4798596,0.0513076923 C22.4293333,0.208415385 23.1219649,0.741307692 23.5528421,1.60398462 C23.6370526,1.77312308 23.741614,1.84743077 23.9079298,1.90404615 C27.530386,3.13967692 29.8124912,5.61164615 30.6749474,9.38647692 C30.8047719,9.95263077 30.8419649,10.5322308 30.8721404,11.1104154 C30.8812632,11.2880462 30.9275789,11.3581077 31.1093333,11.3397077 C31.2538947,11.3248462 31.4012632,11.3333385 31.5472281,11.3382923 C31.9921404,11.3524462 32.2763509,11.6319846 32.2861754,12.0820769 C32.2967018,12.5342923 32.2967018,12.9872154 32.2861754,13.4387231 C32.2770526,13.8704154 31.9935439,14.1520769 31.5633684,14.1669385 C31.2714386,14.1768462 30.9781053,14.1782615 30.6861754,14.1662308 C30.5086316,14.1584462 30.4791579,14.2051538 30.5233684,14.3799538 C30.778807,15.3735538 30.9212632,16.3848462 30.8749474,17.4117077 C30.7535439,20.0966923 29.8286316,22.4653385 28.0623158,24.4843846 C26.2595088,26.5466 23.9949474,27.7963846 21.3058246,28.1941077 C18.1668772,28.6590615 15.2981053,27.9174 12.7872281,25.9549692 C10.3682807,24.0654308 8.95424561,21.5616154 8.52407018,18.4973077 C8.33249123,17.135 8.42301754,15.7939231 8.76407018,14.4677077 C8.82301754,14.2377077 8.80898246,14.1322615 8.53108772,14.1634 C8.2805614,14.191 8.02442105,14.1733077 7.77108772,14.1676462 C7.30512281,14.1577385 7.0237193,13.8789077 7.01670175,13.4125385 C7.00968421,12.9702308 7.00968421,12.5272154 7.01670175,12.0849077 C7.02301754,11.6489692 7.29880702,11.3694308 7.72126316,11.3361692 C7.95003509,11.3177692 8.25389474,11.4479846 8.38652632,11.2731846 C8.49740351,11.1274 8.41178947,10.8372462 8.43003509,10.6129077 C8.75354386,6.53730769 11.4686316,3.1326 15.3767018,1.91041538 C15.5591579,1.85309231 15.6567018,1.76533846 15.7472281,1.59053846 C16.2391579,0.637984615 17.0244211,0.0966 18.090386,0.0222923077 C18.6047719,-0.0138 19.1233684,0.0159230769 19.8952982,0.0159230769" id="Fill-1"></path>
                <path d="M19.6538947,42.4888554 L36.0882807,42.4888554 C36.1563509,42.4888554 36.2251228,42.4831938 36.2924912,42.4895631 C36.4475789,42.50584 36.4798596,42.4577169 36.4630175,42.2921169 C36.2068772,39.7323938 35.1402105,37.5831323 33.1247719,36.0071015 C30.7781053,34.1713477 28.1802105,33.4247323 25.2482807,34.4933477 C23.9823158,34.9540554 22.6630175,35.2243938 21.3205614,35.3397477 C19.1079298,35.5287015 16.9261754,35.3631015 14.7872281,34.7219323 C14.0244211,34.4933477 13.2784561,34.1876246 12.4896842,34.0609477 C11.2075789,33.8557169 9.94863158,34.0637785 8.76266667,34.5315631 C5.33108772,35.8853785 3.33108772,38.4132554 2.84336842,42.1201477 C2.79494737,42.4881477 2.79985965,42.4888554 3.1605614,42.4888554 L19.6538947,42.4888554 Z M19.653193,45.3203323 C13.9205614,45.3203323 8.18792982,45.32104 2.456,45.3203323 C0.919157895,45.3203323 -0.0478596491,44.36424 0.00196491228,42.8179323 C0.11845614,39.1308554 1.60336842,36.1061785 4.43214035,33.7686708 C6.21319298,32.2966708 8.28126316,31.5068862 10.5556491,31.2223938 C12.0005614,31.0419323 13.3844211,31.27264 14.7451228,31.7552862 C16.6342456,32.4247631 18.5844211,32.6731631 20.5802105,32.5634708 C22.0286316,32.4842092 23.4356491,32.1685785 24.7942456,31.67744 C26.9409123,30.9018092 29.0791579,31.0291938 31.1774035,31.7616554 C35.1963509,33.1650092 37.778807,35.9695938 38.9233684,40.1053477 C39.1837193,41.0465785 39.2791579,42.0147015 39.3051228,42.9884862 C39.3381053,44.2411015 38.3612632,45.2700862 37.1128421,45.3182092 C36.9184561,45.3252862 36.7233684,45.3203323 36.5282807,45.3203323 L19.653193,45.3203323 Z" id="Fill-3"></path>
            </g>
        </g>
    </g>
</svg>